<svg width="31" height="30" viewBox="0 0 31 30" fill="none" xmlns="http://www.w3.org/2000/svg">
<circle cx="15.5" cy="15" r="12.5" fill="#BABABA" stroke="#999999" stroke-width="5"/>
<path d="M11.8113 20.5V19.0724L15.5985 15.3597C15.9608 14.994 16.2626 14.669 16.5041 14.3849C16.7456 14.1009 16.9267 13.8256 17.0474 13.5593C17.1681 13.293 17.2285 13.0089 17.2285 12.707C17.2285 12.3626 17.1504 12.0678 16.9941 11.8228C16.8379 11.5742 16.623 11.3825 16.3496 11.2475C16.0762 11.1126 15.7654 11.0451 15.4174 11.0451C15.0588 11.0451 14.7445 11.1197 14.4746 11.2688C14.2047 11.4144 13.9952 11.6222 13.8461 11.892C13.7005 12.1619 13.6277 12.4833 13.6277 12.8562H11.7473C11.7473 12.1637 11.9054 11.5618 12.2214 11.0504C12.5375 10.5391 12.9725 10.1431 13.5265 9.86257C14.084 9.58203 14.7232 9.44176 15.4441 9.44176C16.1756 9.44176 16.8184 9.57848 17.3723 9.85192C17.9263 10.1254 18.356 10.5 18.6614 10.9759C18.9703 11.4517 19.1248 11.995 19.1248 12.6058C19.1248 13.0142 19.0467 13.4155 18.8904 13.8097C18.7342 14.2038 18.459 14.6406 18.0648 15.12C17.6742 15.5994 17.1255 16.18 16.4189 16.8619L14.5385 18.7741V18.8487H19.29V20.5H11.8113Z" fill="white"/>
</svg>
