<svg width="31" height="30" viewBox="0 0 31 30" fill="none" xmlns="http://www.w3.org/2000/svg">
<circle cx="15.5" cy="15" r="12.5" fill="#D18212" stroke="#A86810" stroke-width="5"/>
<path d="M15.4993 20.6491C14.7323 20.6491 14.0505 20.5178 13.4539 20.255C12.8608 19.9922 12.3921 19.6264 12.0476 19.1577C11.7032 18.6889 11.5203 18.1474 11.499 17.533H13.5018C13.5196 17.8278 13.6172 18.0852 13.7948 18.3054C13.9723 18.522 14.2085 18.6907 14.5032 18.8114C14.798 18.9322 15.1282 18.9925 15.494 18.9925C15.8846 18.9925 16.2309 18.9251 16.5327 18.7901C16.8346 18.6516 17.0707 18.4599 17.2412 18.2148C17.4116 17.9698 17.4951 17.6875 17.4915 17.3679C17.4951 17.0376 17.4098 16.7464 17.2358 16.4943C17.0618 16.2422 16.8097 16.0451 16.4794 15.9031C16.1527 15.761 15.7586 15.69 15.2969 15.69H14.3328V14.1665H15.2969C15.6769 14.1665 16.0089 14.1009 16.293 13.9695C16.5807 13.8381 16.8062 13.6534 16.9695 13.4155C17.1329 13.174 17.2128 12.8952 17.2092 12.5792C17.2128 12.2702 17.1435 12.0021 17.0015 11.7749C16.863 11.544 16.6659 11.3647 16.4102 11.2369C16.1581 11.109 15.8616 11.0451 15.5206 11.0451C15.1868 11.0451 14.8779 11.1055 14.5938 11.2262C14.3097 11.3469 14.0807 11.5192 13.9066 11.7429C13.7326 11.9631 13.6403 12.2259 13.6297 12.5312H11.728C11.7422 11.9205 11.918 11.3842 12.2554 10.9226C12.5963 10.4574 13.0508 10.0952 13.619 9.83594C14.1872 9.57315 14.8246 9.44176 15.5313 9.44176C16.2593 9.44176 16.8914 9.57848 17.4276 9.85192C17.9674 10.1218 18.3846 10.4858 18.6794 10.9439C18.9741 11.402 19.1215 11.908 19.1215 12.462C19.125 13.0763 18.9439 13.5913 18.5782 14.0067C18.216 14.4222 17.7401 14.6939 17.1506 14.8217V14.907C17.9177 15.0135 18.5054 15.2976 18.9138 15.7592C19.3257 16.2173 19.5299 16.7873 19.5263 17.4691C19.5263 18.0799 19.3523 18.6268 19.0043 19.1097C18.6598 19.5891 18.184 19.9656 17.5767 20.239C16.9731 20.5124 16.2806 20.6491 15.4993 20.6491Z" fill="white"/>
</svg>
