<svg width="39" height="41" viewBox="0 0 39 41" fill="none" xmlns="http://www.w3.org/2000/svg">
<g filter="url(#filter0_d_290_4113)">
<path d="M14.5 34L13.3436 34.9553C13.6512 35.3277 14.1193 35.5292 14.6011 35.4966C15.083 35.464 15.5198 35.2014 15.7745 34.791L14.5 34ZM33.7745 5.79104C34.2113 5.08718 33.9949 4.16242 33.291 3.72554C32.5872 3.28866 31.6624 3.50509 31.2255 4.20896L33.7745 5.79104ZM6.15644 21.5447C5.62883 20.906 4.68336 20.8159 4.04468 21.3436C3.40599 21.8712 3.31595 22.8166 3.84356 23.4553L6.15644 21.5447ZM15.7745 34.791L33.7745 5.79104L31.2255 4.20896L13.2255 33.209L15.7745 34.791ZM3.84356 23.4553L8.59356 29.2053L10.9064 27.2947L6.15644 21.5447L3.84356 23.4553ZM8.59356 29.2053L13.3436 34.9553L15.6564 33.0447L10.9064 27.2947L8.59356 29.2053Z" fill="#FFDE59"/>
</g>
<defs>
<filter id="filter0_d_290_4113" x="0.5" y="0.5" width="38.5" height="40" filterUnits="userSpaceOnUse" color-interpolation-filters="sRGB">
<feFlood flood-opacity="0" result="BackgroundImageFix"/>
<feColorMatrix in="SourceAlpha" type="matrix" values="0 0 0 0 0 0 0 0 0 0 0 0 0 0 0 0 0 0 127 0" result="hardAlpha"/>
<feOffset dx="1" dy="1"/>
<feGaussianBlur stdDeviation="2"/>
<feComposite in2="hardAlpha" operator="out"/>
<feColorMatrix type="matrix" values="0 0 0 0 0 0 0 0 0 0 0 0 0 0 0 0 0 0 0.25 0"/>
<feBlend mode="normal" in2="BackgroundImageFix" result="effect1_dropShadow_290_4113"/>
<feBlend mode="normal" in="SourceGraphic" in2="effect1_dropShadow_290_4113" result="shape"/>
</filter>
</defs>
</svg>
