<svg width="41" height="43" viewBox="0 0 41 43" fill="none" xmlns="http://www.w3.org/2000/svg">
<g filter="url(#filter0_d_290_4280)">
<path d="M15.5 35L13.5726 36.5922C14.0853 37.2128 14.8654 37.5486 15.6686 37.4943C16.4717 37.44 17.1996 37.0023 17.6241 36.3184L15.5 35ZM35.6241 7.31841C36.3522 6.1453 35.9915 4.60404 34.8184 3.8759C33.6453 3.14776 32.104 3.50848 31.3759 4.68159L35.6241 7.31841ZM7.9274 21.9078C7.04805 20.8433 5.47227 20.6932 4.4078 21.5726C3.34332 22.4519 3.19325 24.0277 4.0726 25.0922L7.9274 21.9078ZM17.6241 36.3184L35.6241 7.31841L31.3759 4.68159L13.3759 33.6816L17.6241 36.3184ZM4.0726 25.0922L8.8226 30.8422L12.6774 27.6578L7.9274 21.9078L4.0726 25.0922ZM8.8226 30.8422L13.5726 36.5922L17.4274 33.4078L12.6774 27.6578L8.8226 30.8422Z" fill="#FF7729"/>
</g>
<defs>
<filter id="filter0_d_290_4280" x="0.5" y="0.499512" width="40.5" height="42.0005" filterUnits="userSpaceOnUse" color-interpolation-filters="sRGB">
<feFlood flood-opacity="0" result="BackgroundImageFix"/>
<feColorMatrix in="SourceAlpha" type="matrix" values="0 0 0 0 0 0 0 0 0 0 0 0 0 0 0 0 0 0 127 0" result="hardAlpha"/>
<feOffset dx="1" dy="1"/>
<feGaussianBlur stdDeviation="2"/>
<feComposite in2="hardAlpha" operator="out"/>
<feColorMatrix type="matrix" values="0 0 0 0 0 0 0 0 0 0 0 0 0 0 0 0 0 0 0.25 0"/>
<feBlend mode="normal" in2="BackgroundImageFix" result="effect1_dropShadow_290_4280"/>
<feBlend mode="normal" in="SourceGraphic" in2="effect1_dropShadow_290_4280" result="shape"/>
</filter>
</defs>
</svg>
