<svg width="139" height="76" viewBox="0 0 139 76" fill="none" xmlns="http://www.w3.org/2000/svg">
<g filter="url(#filter0_d_321_2940)">
<path d="M4 20.5727C4 15.2858 8.28582 11 13.5727 11H123.145C128.432 11 132.718 15.2858 132.718 20.5727V59.5726C132.718 64.8595 128.432 69.1453 123.145 69.1453H13.5726C8.28581 69.1453 4 64.8595 4 59.5727V20.5727Z" fill="white" shape-rendering="crispEdges"/>
<path d="M67.7695 17.5376L74.5384 10.7687L67.7695 3.99982L61.0006 10.7687L67.7695 17.5376Z" fill="white"/>
<path d="M23.5402 33.8248C23.4122 33.8248 23.3082 33.7808 23.2282 33.6928C23.1482 33.6048 23.1082 33.4488 23.1082 33.2248C23.1082 33.0568 23.1602 32.7848 23.2642 32.4088C23.3762 32.0248 23.5242 31.5768 23.7082 31.0648C23.9002 30.5528 24.1122 30.0128 24.3442 29.4448C24.5842 28.8688 24.8322 28.2968 25.0882 27.7288C25.3442 27.1608 25.5962 26.6368 25.8442 26.1568C26.0922 25.6688 26.3202 25.2568 26.5282 24.9208C26.7362 24.5848 26.9122 24.3648 27.0562 24.2608C27.2242 24.1408 27.3802 24.0808 27.5242 24.0808C27.6042 24.0808 27.6842 24.0888 27.7642 24.1048C27.8442 24.1208 27.9122 24.1488 27.9682 24.1888C28.1122 24.2768 28.2362 24.4728 28.3402 24.7768C28.4522 25.0728 28.5482 25.4368 28.6282 25.8688C28.7082 26.2928 28.7722 26.7488 28.8202 27.2368C28.8762 27.7168 28.9242 28.1928 28.9642 28.6648C29.2042 28.6328 29.4042 28.6088 29.5642 28.5928C29.7242 28.5768 29.8402 28.5688 29.9122 28.5688C30.1842 28.5688 30.3562 28.6048 30.4282 28.6768C30.5002 28.7488 30.5402 28.8328 30.5482 28.9288C30.5642 29.0728 30.5242 29.2008 30.4282 29.3128C30.3322 29.4248 30.1962 29.5088 30.0202 29.5648C29.9642 29.5808 29.8442 29.6088 29.6602 29.6488C29.4842 29.6808 29.2722 29.7208 29.0242 29.7688C29.0322 30.0088 29.0362 30.2328 29.0362 30.4408C29.0442 30.6408 29.0482 30.8128 29.0482 30.9568C29.0482 31.6848 29.0042 32.2328 28.9162 32.6008C28.8282 32.9608 28.7202 33.2048 28.5922 33.3328C28.4642 33.4608 28.3402 33.5248 28.2202 33.5248C28.0762 33.5248 27.9762 33.4848 27.9202 33.4048C27.8642 33.3168 27.8362 33.1928 27.8362 33.0328V32.1808C27.8362 31.8848 27.8322 31.5488 27.8242 31.1728C27.8242 30.7888 27.8202 30.3848 27.8122 29.9608C27.3402 30.0408 26.8602 30.1168 26.3722 30.1888C25.8922 30.2608 25.4762 30.3248 25.1242 30.3808C24.9482 30.8368 24.7962 31.2488 24.6682 31.6168C24.5402 31.9768 24.4522 32.2528 24.4042 32.4448C24.2842 32.8448 24.1762 33.1448 24.0802 33.3448C23.9842 33.5368 23.8922 33.6648 23.8042 33.7288C23.7242 33.7928 23.6362 33.8248 23.5402 33.8248ZM25.5322 29.3128C25.9482 29.2168 26.3442 29.1288 26.7202 29.0488C27.1042 28.9688 27.4562 28.9008 27.7762 28.8448C27.7522 28.1248 27.7082 27.4368 27.6442 26.7808C27.5882 26.1168 27.5042 25.5928 27.3922 25.2088C27.2402 25.4728 27.0602 25.8248 26.8522 26.2648C26.6442 26.7048 26.4242 27.1928 26.1922 27.7288C25.9682 28.2568 25.7482 28.7848 25.5322 29.3128ZM34.5201 26.6608C34.1761 26.6608 33.9441 26.6128 33.8241 26.5168C33.7121 26.4208 33.6561 26.3288 33.6561 26.2408C33.6561 26.1128 33.7201 25.9968 33.8481 25.8928C33.9841 25.7888 34.1481 25.7168 34.3401 25.6768C34.5721 25.6288 34.8521 25.5808 35.1801 25.5328C35.5161 25.4768 35.8641 25.4288 36.2241 25.3888C36.5841 25.3408 36.9361 25.3048 37.2801 25.2808C37.6241 25.2568 37.9241 25.2448 38.1801 25.2448C38.5161 25.2448 38.7721 25.3088 38.9481 25.4368C39.1321 25.5568 39.2241 25.6688 39.2241 25.7728C39.2241 25.7808 39.2241 25.7968 39.2241 25.8208C39.2241 25.8848 39.2121 25.9408 39.1881 25.9888C39.1641 26.0368 39.0841 26.0848 38.9481 26.1328C38.8201 26.1728 38.6001 26.2168 38.2881 26.2648C37.9841 26.3048 37.5521 26.3488 36.9921 26.3968C36.8801 26.4048 36.7561 26.4168 36.6201 26.4328C36.5881 26.6488 36.5401 26.9328 36.4761 27.2848C36.4121 27.6368 36.3401 28.0288 36.2601 28.4608C36.1801 28.8928 36.0961 29.3368 36.0081 29.7928C35.9201 30.2408 35.8321 30.6688 35.7441 31.0768C35.6641 31.4848 35.5921 31.8448 35.5281 32.1568C35.4721 32.4688 35.4281 32.7048 35.3961 32.8648C35.8121 32.8088 36.1801 32.7728 36.5001 32.7568C36.8281 32.7328 37.0481 32.7208 37.1601 32.7208C37.4561 32.7208 37.6041 32.8328 37.6041 33.0568C37.6041 33.1208 37.4681 33.2128 37.1961 33.3328C36.9241 33.4528 36.5761 33.5768 36.1521 33.7048C35.7281 33.8328 35.2881 33.9528 34.8321 34.0648C34.4561 34.1528 34.0841 34.2208 33.7161 34.2688C33.3561 34.3168 33.0961 34.3408 32.9361 34.3408C32.7601 34.3408 32.6361 34.3088 32.5641 34.2448C32.4921 34.1888 32.4561 34.1048 32.4561 33.9928C32.4561 33.8808 32.4881 33.7688 32.5521 33.6568C32.6241 33.5448 32.7201 33.4648 32.8401 33.4168C33.0561 33.3368 33.2961 33.2648 33.5601 33.2008C33.8241 33.1288 34.0921 33.0648 34.3641 33.0088C34.3641 32.9688 34.3641 32.9208 34.3641 32.8648C34.3641 32.7528 34.3841 32.5408 34.4241 32.2288C34.4721 31.9168 34.5321 31.5448 34.6041 31.1128C34.6761 30.6728 34.7561 30.2168 34.8441 29.7448C34.9321 29.2648 35.0161 28.8088 35.0961 28.3768C35.1761 27.9368 35.2481 27.5568 35.3121 27.2368C35.3761 26.9088 35.4241 26.6888 35.4561 26.5768C35.2561 26.6008 35.0761 26.6208 34.9161 26.6368C34.7561 26.6528 34.6241 26.6608 34.5201 26.6608ZM40.0243 32.0608C40.7283 31.7088 41.3483 31.3088 41.8843 30.8608C42.4203 30.4128 42.8723 29.9288 43.2403 29.4088C43.6163 28.8888 43.9163 28.3448 44.1403 27.7768C44.3643 27.2008 44.5163 26.6128 44.5963 26.0128C44.1083 26.0288 43.6243 26.0408 43.1443 26.0488C42.6643 26.0488 42.1843 26.0488 41.7043 26.0488H40.4683V25.1608H42.3523C42.9123 25.1608 43.4723 25.1608 44.0323 25.1608C44.5923 25.1608 45.1563 25.1528 45.7243 25.1368C45.6123 26.7848 45.1563 28.2608 44.3563 29.5648C43.5563 30.8608 42.3443 31.9448 40.7203 32.8168L40.0243 32.0608ZM50.4163 29.3608H48.5323V35.1688H47.5003V24.2128H48.5323V28.4488H50.4163V29.3608ZM57.2831 32.1328V25.0288H58.1591V27.7648H59.2631V25.0048H60.1751V32.1328H57.2831ZM59.2631 28.5448H58.1591V31.2808H59.2631V28.5448ZM53.6591 32.1328V25.0528H54.5471V27.7648H55.6751V25.0288H56.5871V32.1328H53.6591ZM55.6751 28.5448H54.5471V31.2808H55.6751V28.5448ZM63.7991 29.2048H62.1911V35.1688H61.2071V24.2128H62.1911V28.2928H63.7991V29.2048ZM69.4464 25.1608H73.0704V26.0368H70.4664V29.3608H73.2024V30.2368H69.4464V25.1608ZM65.3664 30.2968V25.1608H68.8584V26.0368H66.3864V29.4208H66.5544C66.9704 29.4208 67.3944 29.4048 67.8264 29.3728C68.2664 29.3408 68.6824 29.2928 69.0744 29.2288V30.0808C68.6504 30.1528 68.1784 30.2088 67.6584 30.2488C67.1384 30.2808 66.5344 30.2968 65.8464 30.2968H65.3664ZM74.2704 32.6608V33.5368H64.0704V32.6608H74.2704ZM76.4016 29.4208H77.4216C78.3576 29.4208 79.1696 29.3768 79.8576 29.2888C80.5456 29.2008 81.1416 29.0968 81.6456 28.9768V29.8408C81.0616 29.9848 80.3976 30.0968 79.6536 30.1768C78.9176 30.2568 78.1256 30.2968 77.2776 30.2968H75.3576V27.0448H78.9456V25.4728H75.3336V24.6088H79.9776V27.8608H76.4016V29.4208ZM81.0336 26.5528V25.7008H82.8576V24.2128H83.8896V30.5608H82.8576V28.4608H81.0336V27.5968H82.8696V26.5528H81.0336ZM82.5696 32.1808C82.7216 32.6368 83.0016 33.0408 83.4096 33.3928C83.8176 33.7368 84.3256 34.0608 84.9336 34.3648L84.2736 35.1208C83.8176 34.8888 83.4096 34.6128 83.0496 34.2928C82.6976 33.9808 82.4056 33.6328 82.1736 33.2488C81.9656 33.6328 81.7056 33.9808 81.3936 34.2928C81.0816 34.6128 80.7216 34.9008 80.3136 35.1568C79.9536 34.9008 79.6256 34.6088 79.3296 34.2808C79.0416 33.9528 78.7896 33.5968 78.5736 33.2128C78.3336 33.6288 78.0256 33.9968 77.6496 34.3168C77.2816 34.6448 76.8656 34.9248 76.4016 35.1568L75.6816 34.4128C76.0496 34.2368 76.3816 34.0448 76.6776 33.8368C76.9816 33.6288 77.2376 33.3968 77.4456 33.1408C77.6616 32.8768 77.8216 32.5848 77.9256 32.2648C78.0376 31.9448 78.0816 31.5848 78.0576 31.1848H79.1136C79.1136 31.3528 79.1016 31.5168 79.0776 31.6768C79.0616 31.8368 79.0336 31.9928 78.9936 32.1448C79.1536 32.5288 79.3536 32.8728 79.5936 33.1768C79.8416 33.4728 80.1096 33.7288 80.3976 33.9448C80.5896 33.7688 80.7696 33.5928 80.9376 33.4168C81.1056 33.2328 81.2456 33.0328 81.3576 32.8168C81.4776 32.6008 81.5656 32.3608 81.6216 32.0968C81.6776 31.8328 81.6896 31.5248 81.6576 31.1728H82.6896C82.6896 31.5328 82.6496 31.8688 82.5696 32.1808ZM88.3848 32.0728H86.0088V25.0048H87.0768V31.1488H88.5288C89.3368 31.1488 90.0768 31.0968 90.7488 30.9928C91.4208 30.8888 91.9688 30.7888 92.3928 30.6928V31.5928C92.1608 31.6568 91.8888 31.7168 91.5768 31.7728C91.2648 31.8288 90.9328 31.8808 90.5808 31.9288C90.2288 31.9688 89.8648 32.0048 89.4888 32.0368C89.1128 32.0608 88.7448 32.0728 88.3848 32.0728ZM95.8968 29.2048H94.0128V35.1688H92.9808V24.2128H94.0128V28.2928H95.8968V29.2048ZM104.904 27.5368C104.904 27.9528 104.816 28.3368 104.64 28.6888C104.472 29.0408 104.228 29.3448 103.908 29.6008C103.596 29.8568 103.216 30.0568 102.768 30.2008C102.32 30.3448 101.82 30.4168 101.268 30.4168C100.716 30.4168 100.216 30.3448 99.768 30.2008C99.32 30.0568 98.936 29.8568 98.616 29.6008C98.304 29.3448 98.06 29.0408 97.884 28.6888C97.716 28.3368 97.632 27.9528 97.632 27.5368C97.632 27.1208 97.716 26.7368 97.884 26.3848C98.06 26.0328 98.304 25.7288 98.616 25.4728C98.936 25.2168 99.32 25.0168 99.768 24.8728C100.216 24.7288 100.716 24.6568 101.268 24.6568C101.82 24.6568 102.32 24.7288 102.768 24.8728C103.216 25.0168 103.596 25.2168 103.908 25.4728C104.228 25.7288 104.472 26.0328 104.64 26.3848C104.816 26.7368 104.904 27.1208 104.904 27.5368ZM103.848 27.5368C103.848 27.2648 103.792 27.0088 103.68 26.7688C103.576 26.5288 103.416 26.3208 103.2 26.1448C102.992 25.9608 102.724 25.8168 102.396 25.7128C102.076 25.6088 101.7 25.5568 101.268 25.5568C100.836 25.5568 100.456 25.6088 100.128 25.7128C99.808 25.8168 99.54 25.9608 99.324 26.1448C99.116 26.3208 98.956 26.5288 98.844 26.7688C98.74 27.0088 98.688 27.2648 98.688 27.5368C98.688 27.8088 98.74 28.0648 98.844 28.3048C98.956 28.5448 99.116 28.7568 99.324 28.9408C99.54 29.1248 99.808 29.2728 100.128 29.3848C100.456 29.4888 100.836 29.5408 101.268 29.5408C101.7 29.5408 102.076 29.4888 102.396 29.3848C102.724 29.2728 102.992 29.1248 103.2 28.9408C103.416 28.7568 103.576 28.5448 103.68 28.3048C103.792 28.0648 103.848 27.8088 103.848 27.5368ZM106.368 32.6008V33.4768H96.168V32.6008H98.664V30.5728H99.696V32.6008H102.924V30.5728H103.956V32.6008H106.368ZM107.731 26.2888C107.691 26.3288 107.655 26.3448 107.623 26.3368C107.599 26.3208 107.587 26.2808 107.587 26.2168V25.2568C107.923 25.0488 108.263 24.8848 108.607 24.7648C108.951 24.6368 109.315 24.5728 109.699 24.5728C110.083 24.5728 110.431 24.6208 110.743 24.7168C111.063 24.8048 111.335 24.9368 111.559 25.1128C111.783 25.2888 111.955 25.5048 112.075 25.7608C112.203 26.0088 112.267 26.2928 112.267 26.6128C112.267 26.8448 112.227 27.0728 112.147 27.2968C112.067 27.5128 111.963 27.7208 111.835 27.9208C111.715 28.1208 111.579 28.3088 111.427 28.4848C111.275 28.6528 111.127 28.8088 110.983 28.9528C110.855 29.0808 110.735 29.2008 110.623 29.3128C110.519 29.4168 110.427 29.5288 110.347 29.6488C110.275 29.7688 110.215 29.9008 110.167 30.0448C110.127 30.1808 110.107 30.3408 110.107 30.5248C110.107 30.6928 110.115 30.8528 110.131 31.0048C110.155 31.1488 110.183 31.2968 110.215 31.4488H109.267C109.195 31.1528 109.159 30.8368 109.159 30.5008C109.159 30.0768 109.247 29.7168 109.423 29.4208C109.599 29.1248 109.831 28.8288 110.119 28.5328C110.255 28.4048 110.387 28.2768 110.515 28.1488C110.651 28.0128 110.767 27.8728 110.863 27.7288C110.967 27.5768 111.051 27.4208 111.115 27.2608C111.179 27.0928 111.211 26.9168 111.211 26.7328C111.211 26.3008 111.063 25.9808 110.767 25.7728C110.471 25.5648 110.075 25.4608 109.579 25.4608C109.211 25.4608 108.879 25.5328 108.583 25.6768C108.287 25.8208 108.003 26.0248 107.731 26.2888ZM109.723 32.6368C109.963 32.6368 110.159 32.7128 110.311 32.8648C110.463 33.0168 110.539 33.2088 110.539 33.4408C110.539 33.6728 110.463 33.8648 110.311 34.0168C110.159 34.1688 109.963 34.2448 109.723 34.2448C109.483 34.2448 109.287 34.1688 109.135 34.0168C108.983 33.8648 108.907 33.6728 108.907 33.4408C108.907 33.2088 108.983 33.0168 109.135 32.8648C109.287 32.7128 109.483 32.6368 109.723 32.6368Z" fill="black"/>
<path d="M18.6139 42.8768V41.2448H25.7819V42.8768H18.6139ZM19.7019 49.2448L19.5899 43.3568H21.3979L21.4939 49.2448H22.9659V43.3568H24.7739L24.6939 49.1008C24.9285 49.0794 25.1632 49.0474 25.3979 49.0048C25.6325 48.9514 25.8725 48.8981 26.1179 48.8448V50.4608C25.4992 50.6421 24.8432 50.7594 24.1499 50.8128C23.4672 50.8661 22.7845 50.8928 22.1019 50.8928H18.5019V49.2448H19.7019ZM31.2699 54.8288H29.3979V46.7168H28.3739V54.4608H26.5499V40.1568H28.3739V45.0528H29.3979V39.9968H31.2699V54.8288ZM39.0715 43.7248V42.1088H43.3115V39.9968H45.2955V47.3408H43.3115V43.7248H39.0715ZM45.5835 54.6688H35.8235V50.4928H43.3275V49.5968H35.8235V47.9648H45.2955V52.1088H37.7595V53.0368H45.5835V54.6688ZM36.8315 46.8448H33.8715V40.4608H35.9035V45.2448H37.2315C39.1195 45.2448 40.8742 45.0368 42.4955 44.6208V46.1888C41.6422 46.4341 40.7302 46.6048 39.7595 46.7008C38.7888 46.7968 37.8128 46.8448 36.8315 46.8448ZM57.5771 39.9968H59.5611V54.8288H57.5771V39.9968ZM55.4971 46.2048C55.4971 47.0688 55.4011 47.8368 55.2091 48.5088C55.0278 49.1701 54.7665 49.7301 54.4251 50.1888C54.0838 50.6474 53.6731 50.9941 53.1931 51.2288C52.7238 51.4634 52.1958 51.5808 51.6091 51.5808C51.0225 51.5808 50.4891 51.4634 50.0091 51.2288C49.5398 50.9941 49.1345 50.6474 48.7931 50.1888C48.4518 49.7301 48.1851 49.1701 47.9931 48.5088C47.8118 47.8368 47.7211 47.0688 47.7211 46.2048C47.7211 45.3408 47.8118 44.5781 47.9931 43.9168C48.1851 43.2448 48.4518 42.6794 48.7931 42.2208C49.1345 41.7621 49.5398 41.4154 50.0091 41.1808C50.4891 40.9461 51.0225 40.8288 51.6091 40.8288C52.1958 40.8288 52.7238 40.9461 53.1931 41.1808C53.6731 41.4154 54.0838 41.7621 54.4251 42.2208C54.7665 42.6794 55.0278 43.2448 55.2091 43.9168C55.4011 44.5781 55.4971 45.3408 55.4971 46.2048ZM53.4811 46.2048C53.4811 45.0528 53.3158 44.1514 52.9851 43.5008C52.6651 42.8501 52.2065 42.5248 51.6091 42.5248C51.0118 42.5248 50.5478 42.8501 50.2171 43.5008C49.8971 44.1514 49.7371 45.0528 49.7371 46.2048C49.7371 47.3568 49.8971 48.2581 50.2171 48.9088C50.5478 49.5594 51.0118 49.8848 51.6091 49.8848C52.2065 49.8848 52.6651 49.5594 52.9851 48.9088C53.3158 48.2581 53.4811 47.3568 53.4811 46.2048ZM72.6209 47.2608H65.6769V40.6528H72.6209V47.2608ZM70.6689 45.6928V42.2208H67.6289V45.6928H70.6689ZM78.9569 44.6368H76.7329V48.2368H74.7649V39.9968H76.7329V42.9888H78.9569V44.6368ZM74.1409 52.0448C74.7595 52.2794 75.3995 52.4981 76.0609 52.7008C76.7222 52.9141 77.4849 53.1274 78.3489 53.3408L77.2609 54.8288C76.3649 54.5941 75.5115 54.3328 74.7009 54.0448C73.9009 53.7568 73.1115 53.4314 72.3329 53.0688C71.5649 53.4421 70.7489 53.7781 69.8849 54.0768C69.0315 54.3861 68.1729 54.6474 67.3089 54.8608L66.2849 53.3728C67.3089 53.1381 68.2422 52.8821 69.0849 52.6048C69.9275 52.3381 70.6635 52.0714 71.2929 51.8048C71.9329 51.5274 72.4555 51.2714 72.8609 51.0368C73.2662 50.7914 73.5435 50.5834 73.6929 50.4128C73.0849 50.4448 72.5089 50.4661 71.9649 50.4768C71.4315 50.4768 70.8662 50.4768 70.2689 50.4768H67.6929V48.8608H72.4449C73.0849 48.8608 73.7142 48.8608 74.3329 48.8608C74.9622 48.8608 75.6289 48.8501 76.3329 48.8288C76.4822 48.8288 76.5889 48.8821 76.6529 48.9888C76.7169 49.0848 76.7169 49.2288 76.6529 49.4208C76.5035 49.8688 76.2049 50.3168 75.7569 50.7648C75.3195 51.2021 74.7809 51.6288 74.1409 52.0448ZM82.8705 50.8448H80.1185V41.0368H82.1345V49.1328H83.3185C84.2572 49.1328 85.1372 49.0794 85.9585 48.9728C86.7905 48.8554 87.6225 48.6901 88.4545 48.4768V50.1728C87.6865 50.3968 86.8118 50.5674 85.8305 50.6848C84.8598 50.7914 83.8732 50.8448 82.8705 50.8448ZM93.3505 47.0208H91.0305V54.8288H89.0465V39.9968H91.0305V45.3408H93.3505V47.0208ZM107.328 51.1168V52.7648H93.6001V51.1168H96.6561V48.7168H98.6401V51.1168H102.368V48.7168H104.352V51.1168H107.328ZM105.44 44.5408C105.44 45.0954 105.323 45.6074 105.088 46.0768C104.853 46.5461 104.517 46.9514 104.08 47.2928C103.653 47.6341 103.131 47.9008 102.512 48.0928C101.904 48.2848 101.221 48.3808 100.464 48.3808C99.7068 48.3808 99.0188 48.2848 98.4001 48.0928C97.7921 47.9008 97.2695 47.6341 96.8321 47.2928C96.4055 46.9514 96.0748 46.5461 95.8401 46.0768C95.6055 45.6074 95.4881 45.0954 95.4881 44.5408C95.4881 43.9861 95.6055 43.4741 95.8401 43.0048C96.0748 42.5248 96.4055 42.1088 96.8321 41.7568C97.2695 41.4048 97.7921 41.1328 98.4001 40.9408C99.0188 40.7381 99.7068 40.6368 100.464 40.6368C101.221 40.6368 101.904 40.7381 102.512 40.9408C103.131 41.1328 103.653 41.4048 104.08 41.7568C104.517 42.1088 104.853 42.5248 105.088 43.0048C105.323 43.4741 105.44 43.9861 105.44 44.5408ZM103.424 44.5248C103.424 44.2048 103.355 43.9061 103.216 43.6288C103.088 43.3514 102.896 43.1168 102.64 42.9248C102.395 42.7221 102.085 42.5621 101.712 42.4448C101.349 42.3274 100.933 42.2688 100.464 42.2688C99.9948 42.2688 99.5735 42.3274 99.2001 42.4448C98.8375 42.5621 98.5281 42.7221 98.2721 42.9248C98.0268 43.1168 97.8348 43.3514 97.6961 43.6288C97.5681 43.9061 97.5041 44.2048 97.5041 44.5248C97.5041 44.8448 97.5681 45.1434 97.6961 45.4208C97.8348 45.6981 98.0268 45.9381 98.2721 46.1408C98.5281 46.3328 98.8375 46.4874 99.2001 46.6048C99.5735 46.7221 99.9948 46.7808 100.464 46.7808C100.933 46.7808 101.349 46.7221 101.712 46.6048C102.085 46.4874 102.395 46.3328 102.64 46.1408C102.896 45.9381 103.088 45.6981 103.216 45.4208C103.355 45.1434 103.424 44.8448 103.424 44.5248ZM111.738 51.0048C112.132 51.0048 112.463 51.1381 112.73 51.4048C113.007 51.6608 113.146 51.9648 113.146 52.3168C113.146 52.6688 113.007 52.9728 112.73 53.2288C112.463 53.4848 112.132 53.6128 111.738 53.6128C111.354 53.6128 111.034 53.4848 110.778 53.2288C110.522 52.9728 110.394 52.6688 110.394 52.3168C110.394 51.9648 110.522 51.6608 110.778 51.4048C111.034 51.1381 111.354 51.0048 111.738 51.0048ZM108.97 43.4208C108.927 43.4741 108.879 43.4848 108.826 43.4528C108.772 43.4208 108.746 43.3728 108.746 43.3088V41.4848C109.172 41.1648 109.652 40.9194 110.186 40.7488C110.73 40.5674 111.258 40.4768 111.77 40.4768C112.932 40.4768 113.818 40.7381 114.426 41.2608C115.044 41.7728 115.354 42.4821 115.354 43.3888C115.354 43.7194 115.295 44.0394 115.178 44.3488C115.071 44.6474 114.932 44.9354 114.762 45.2128C114.602 45.4794 114.415 45.7301 114.202 45.9648C113.999 46.1994 113.802 46.4074 113.61 46.5888C113.45 46.7488 113.3 46.8981 113.162 47.0368C113.034 47.1754 112.922 47.3194 112.826 47.4688C112.73 47.6074 112.655 47.7568 112.602 47.9168C112.559 48.0768 112.538 48.2688 112.538 48.4928C112.538 48.6954 112.548 48.8981 112.57 49.1008C112.591 49.2928 112.655 49.5594 112.762 49.9008H110.938C110.852 49.6554 110.794 49.4048 110.762 49.1488C110.74 48.8928 110.73 48.6528 110.73 48.4288C110.73 48.1301 110.762 47.8634 110.826 47.6288C110.89 47.3834 110.98 47.1541 111.098 46.9408C111.215 46.7274 111.348 46.5248 111.498 46.3328C111.658 46.1301 111.834 45.9328 112.026 45.7408C112.378 45.4101 112.682 45.0794 112.938 44.7488C113.204 44.4181 113.338 44.0341 113.338 43.5968C113.338 43.0848 113.183 42.7114 112.874 42.4768C112.564 42.2421 112.122 42.1248 111.546 42.1248C111.13 42.1248 110.698 42.2261 110.25 42.4288C109.802 42.6314 109.375 42.9621 108.97 43.4208Z" fill="black"/>
</g>
<defs>
<filter id="filter0_d_321_2940" x="0.410256" y="0.410256" width="138.291" height="74.7182" filterUnits="userSpaceOnUse" color-interpolation-filters="sRGB">
<feFlood flood-opacity="0" result="BackgroundImageFix"/>
<feColorMatrix in="SourceAlpha" type="matrix" values="0 0 0 0 0 0 0 0 0 0 0 0 0 0 0 0 0 0 127 0" result="hardAlpha"/>
<feOffset dx="1.19658" dy="1.19658"/>
<feGaussianBlur stdDeviation="2.39316"/>
<feComposite in2="hardAlpha" operator="out"/>
<feColorMatrix type="matrix" values="0 0 0 0 0 0 0 0 0 0 0 0 0 0 0 0 0 0 0.25 0"/>
<feBlend mode="normal" in2="BackgroundImageFix" result="effect1_dropShadow_321_2940"/>
<feBlend mode="normal" in="SourceGraphic" in2="effect1_dropShadow_321_2940" result="shape"/>
</filter>
</defs>
</svg>
