<svg width="104" height="104" viewBox="0 0 104 104" fill="none" xmlns="http://www.w3.org/2000/svg">
<g filter="url(#filter0_d_723_3600)">
<path d="M47.0786 5.38032C49.1706 3.04346 52.8294 3.04345 54.9214 5.38032L63.4725 14.9322C64.5387 16.1232 66.0883 16.7651 67.6844 16.6769L80.4852 15.9692C83.6168 15.7961 86.2039 18.3831 86.0308 21.5148L85.3231 34.3156C85.2349 35.9117 85.8768 37.4613 87.0678 38.5275L96.6197 47.0786C98.9565 49.1706 98.9565 52.8294 96.6197 54.9214L87.0678 63.4725C85.8768 64.5387 85.2349 66.0883 85.3231 67.6844L86.0308 80.4852C86.2039 83.6168 83.6169 86.2039 80.4852 86.0308L67.6844 85.3231C66.0883 85.2349 64.5387 85.8768 63.4725 87.0678L54.9214 96.6197C52.8294 98.9565 49.1706 98.9565 47.0786 96.6197L38.5275 87.0678C37.4613 85.8768 35.9117 85.2349 34.3156 85.3231L21.5148 86.0308C18.3832 86.2039 15.7961 83.6169 15.9692 80.4852L16.6769 67.6844C16.7651 66.0883 16.1232 64.5387 14.9322 63.4725L5.38032 54.9214C3.04346 52.8294 3.04345 49.1706 5.38032 47.0786L14.9322 38.5275C16.1232 37.4613 16.7651 35.9117 16.6769 34.3156L15.9692 21.5148C15.7961 18.3832 18.3831 15.7961 21.5148 15.9692L34.3156 16.6769C35.9117 16.7651 37.4613 16.1232 38.5275 14.9322L47.0786 5.38032Z" fill="#FF7729"/>
<circle cx="51.0001" cy="51.0001" r="28.9474" fill="#FFA629"/>
<line x1="23.6194" y1="42.9328" x2="57.9328" y2="57.3806" stroke="#364F85" stroke-width="4" stroke-linecap="round"/>
<line x1="23.0533" y1="57.0415" x2="56.041" y2="42.9467" stroke="#364F85" stroke-width="4" stroke-linecap="round"/>
</g>
<defs>
<filter id="filter0_d_723_3600" x="0.626953" y="0.627441" width="102.746" height="102.745" filterUnits="userSpaceOnUse" color-interpolation-filters="sRGB">
<feFlood flood-opacity="0" result="BackgroundImageFix"/>
<feColorMatrix in="SourceAlpha" type="matrix" values="0 0 0 0 0 0 0 0 0 0 0 0 0 0 0 0 0 0 127 0" result="hardAlpha"/>
<feOffset dx="1" dy="1"/>
<feGaussianBlur stdDeviation="2"/>
<feComposite in2="hardAlpha" operator="out"/>
<feColorMatrix type="matrix" values="0 0 0 0 0 0 0 0 0 0 0 0 0 0 0 0 0 0 0.25 0"/>
<feBlend mode="normal" in2="BackgroundImageFix" result="effect1_dropShadow_723_3600"/>
<feBlend mode="normal" in="SourceGraphic" in2="effect1_dropShadow_723_3600" result="shape"/>
</filter>
</defs>
</svg>
