<svg width="19" height="21" viewBox="0 0 19 21" fill="none" xmlns="http://www.w3.org/2000/svg">
<path d="M0 9.91421V20C0 20.2761 0.223858 20.5 0.5 20.5H6.5C6.77614 20.5 6.99991 20.2749 7.00014 19.9988C7.0036 15.8512 7.09481 14 9.5 14C11.9052 14 11.9964 15.8512 11.9999 19.9988C12.0001 20.2749 12.2239 20.5 12.5 20.5H18.5C18.7761 20.5 19 20.2761 19 20V9.91421C19 9.649 18.8946 9.39464 18.7071 9.20711L10.2071 0.707107C9.81658 0.316582 9.18342 0.316583 8.79289 0.707107L0.292893 9.20711C0.105357 9.39464 0 9.649 0 9.91421Z" fill="#364F85"/>
</svg>
