<svg width="27" height="30" viewBox="0 0 27 30" fill="none" xmlns="http://www.w3.org/2000/svg">
<rect x="1.79999" y="5.45" width="24" height="18" fill="#D9D9D9"/>
<path d="M7.79999 23.45H1.79999V14.45M7.79999 23.45V5.45M7.79999 23.45H13.8M7.79999 5.45H1.79999V14.45M7.79999 5.45H13.8M13.8 5.45V23.45M13.8 5.45H19.8M13.8 23.45H19.8M1.79999 14.45H25.8M25.8 14.45V5.45H19.8M25.8 14.45V23.45H19.8M19.8 23.45V14.45V5.45" stroke="#B3B3B3" stroke-width="1.5"/>
<g filter="url(#filter0_d_12_204)">
<path d="M4.04999 6.2C4.04999 4.54314 5.39313 3.2 7.04999 3.2H7.65576C9.18516 3.2 10.425 4.43982 10.425 5.96923C10.425 6.09668 10.3217 6.2 10.1942 6.2H4.04999Z" fill="#364F85"/>
<path d="M8.17499 22.9308C8.17499 22.8033 8.27831 22.7 8.40576 22.7H14.55C14.55 24.3569 13.2068 25.7 11.55 25.7H10.9442C9.41481 25.7 8.17499 24.4602 8.17499 22.9308Z" fill="#364F85"/>
<path d="M4.04999 13.7H13.05C13.8784 13.7 14.55 14.3716 14.55 15.2H5.54999C4.72156 15.2 4.04999 14.5284 4.04999 13.7Z" fill="#364F85"/>
<path d="M4.04999 6.2H8.54999V13.7H4.04999V6.2Z" fill="#364F85"/>
<path d="M10.05 15.2H14.55V22.7H10.05V15.2Z" fill="#364F85"/>
</g>
<g filter="url(#filter1_d_12_204)">
<path d="M13.05 6.2C13.05 4.54314 14.3931 3.2 16.05 3.2H16.6558C18.1852 3.2 19.425 4.43982 19.425 5.96923C19.425 6.09668 19.3217 6.2 19.1942 6.2H13.05Z" fill="#364F85"/>
<path d="M17.175 22.9308C17.175 22.8033 17.2783 22.7 17.4058 22.7H23.55C23.55 24.3569 22.2068 25.7 20.55 25.7H19.9442C18.4148 25.7 17.175 24.4602 17.175 22.9308Z" fill="#364F85"/>
<path d="M13.05 13.7H22.05C22.8784 13.7 23.55 14.3716 23.55 15.2H14.55C13.7216 15.2 13.05 14.5284 13.05 13.7Z" fill="#364F85"/>
<path d="M13.05 6.2H17.55V13.7H13.05V6.2Z" fill="#364F85"/>
<path d="M19.05 15.2H23.55V22.7H19.05V15.2Z" fill="#364F85"/>
</g>
<defs>
<filter id="filter0_d_12_204" x="0.299988" y="0.949997" width="16.5" height="28.5" filterUnits="userSpaceOnUse" color-interpolation-filters="sRGB">
<feFlood flood-opacity="0" result="BackgroundImageFix"/>
<feColorMatrix in="SourceAlpha" type="matrix" values="0 0 0 0 0 0 0 0 0 0 0 0 0 0 0 0 0 0 127 0" result="hardAlpha"/>
<feOffset dx="-0.75" dy="0.75"/>
<feGaussianBlur stdDeviation="1.5"/>
<feComposite in2="hardAlpha" operator="out"/>
<feColorMatrix type="matrix" values="0 0 0 0 0 0 0 0 0 0 0 0 0 0 0 0 0 0 0.25 0"/>
<feBlend mode="normal" in2="BackgroundImageFix" result="effect1_dropShadow_12_204"/>
<feBlend mode="normal" in="SourceGraphic" in2="effect1_dropShadow_12_204" result="shape"/>
</filter>
<filter id="filter1_d_12_204" x="9.29999" y="0.949997" width="16.5" height="28.5" filterUnits="userSpaceOnUse" color-interpolation-filters="sRGB">
<feFlood flood-opacity="0" result="BackgroundImageFix"/>
<feColorMatrix in="SourceAlpha" type="matrix" values="0 0 0 0 0 0 0 0 0 0 0 0 0 0 0 0 0 0 127 0" result="hardAlpha"/>
<feOffset dx="-0.75" dy="0.75"/>
<feGaussianBlur stdDeviation="1.5"/>
<feComposite in2="hardAlpha" operator="out"/>
<feColorMatrix type="matrix" values="0 0 0 0 0 0 0 0 0 0 0 0 0 0 0 0 0 0 0.25 0"/>
<feBlend mode="normal" in2="BackgroundImageFix" result="effect1_dropShadow_12_204"/>
<feBlend mode="normal" in="SourceGraphic" in2="effect1_dropShadow_12_204" result="shape"/>
</filter>
</defs>
</svg>
