<svg width="30" height="30" viewBox="0 0 30 30" fill="none" xmlns="http://www.w3.org/2000/svg">
<path d="M12.8616 2.38869L13.5029 1.67229L13.8755 2.00579L14.1961 1.64759C14.302 1.52931 14.4261 1.44118 14.5592 1.38175L14.3555 0.925159C14.7644 0.742681 15.2356 0.742681 15.6445 0.92516L15.4408 1.38175C15.5739 1.44118 15.698 1.52931 15.8039 1.64759L16.1245 2.00579L16.4971 1.67229L17.1384 2.38869L16.7659 2.72219L17.4072 3.43858L17.7797 3.10508L18.4211 3.82147L18.0485 4.15497L18.3692 4.51317C18.4738 4.63002 18.5903 4.73353 18.7159 4.82257L19.005 4.41466C19.1981 4.55153 19.4197 4.6433 19.653 4.68305L19.569 5.17595C19.7208 5.20181 19.8763 5.21095 20.0329 5.2023L20.5129 5.17576L20.4853 4.67652L21.4454 4.62344L21.473 5.12268L22.4331 5.06961L22.4055 4.57037L23.3655 4.51729L23.3931 5.01653L23.8731 4.98999C24.0317 4.98123 24.1817 5.00664 24.3179 5.05878L24.4967 4.59183C24.9148 4.75192 25.2481 5.08518 25.4082 5.50334L24.9412 5.68211C24.9934 5.81829 25.0188 5.96833 25.01 6.12685L24.9835 6.60688L25.4827 6.63448L25.4296 7.59454L24.9304 7.56694L24.8773 8.527L25.3766 8.5546L25.3235 9.51466L24.8242 9.48706L24.7977 9.96709C24.789 10.1237 24.7982 10.2792 24.824 10.431L25.3169 10.347C25.3567 10.5803 25.4485 10.8019 25.5853 10.995L25.1774 11.2841C25.2665 11.4097 25.37 11.5262 25.4868 11.6308L25.845 11.9515L26.1785 11.5789L26.8949 12.2203L26.5614 12.5928L27.2778 13.2341L27.6113 12.8616L28.3277 13.5029L27.9942 13.8755L28.3524 14.1961C28.4707 14.302 28.5588 14.4261 28.6182 14.5592L29.0748 14.3555C29.2573 14.7644 29.2573 15.2356 29.0748 15.6445L28.6182 15.4408C28.5588 15.5739 28.4707 15.698 28.3524 15.8039L27.9942 16.1245L28.3277 16.4971L27.6113 17.1384L27.2778 16.7659L26.5614 17.4072L26.8949 17.7797L26.1785 18.4211L25.845 18.0485L25.4868 18.3692C25.37 18.4738 25.2665 18.5903 25.1774 18.7159L25.5853 19.005C25.4485 19.1981 25.3567 19.4197 25.3169 19.653L24.824 19.569C24.7982 19.7208 24.789 19.8763 24.7977 20.0329L24.8242 20.5129L25.3235 20.4853L25.3766 21.4454L24.8773 21.473L24.9304 22.4331L25.4296 22.4055L25.4827 23.3655L24.9835 23.3931L25.01 23.8731C25.0188 24.0317 24.9934 24.1817 24.9412 24.3179L25.4082 24.4967C25.2481 24.9148 24.9148 25.2481 24.4967 25.4082L24.3179 24.9412C24.1817 24.9934 24.0317 25.0188 23.8731 25.01L23.3931 24.9835L23.3655 25.4827L22.4055 25.4296L22.4331 24.9304L21.473 24.8773L21.4454 25.3766L20.4853 25.3235L20.5129 24.8242L20.0329 24.7977C19.8763 24.789 19.7208 24.7982 19.569 24.824L19.653 25.3169C19.4197 25.3567 19.1981 25.4485 19.005 25.5853L18.7159 25.1774C18.5903 25.2665 18.4738 25.37 18.3692 25.4868L18.0485 25.845L18.4211 26.1785L17.7797 26.8949L17.4072 26.5614L16.7659 27.2778L17.1384 27.6113L16.4971 28.3277L16.1245 27.9942L15.8039 28.3524C15.698 28.4707 15.5739 28.5588 15.4408 28.6182L15.6445 29.0748C15.2356 29.2573 14.7644 29.2573 14.3555 29.0748L14.5592 28.6182C14.4261 28.5588 14.302 28.4707 14.1961 28.3524L13.8755 27.9942L13.5029 28.3277L12.8616 27.6113L13.2341 27.2778L12.5928 26.5614L12.2203 26.8949L11.5789 26.1785L11.9515 25.845L11.6308 25.4868C11.5262 25.37 11.4097 25.2665 11.2841 25.1774L10.995 25.5853C10.8019 25.4485 10.5803 25.3567 10.347 25.3169L10.431 24.824C10.2792 24.7982 10.1237 24.789 9.96709 24.7977L9.48706 24.8242L9.51466 25.3235L8.5546 25.3766L8.527 24.8773L7.56694 24.9304L7.59454 25.4296L6.63448 25.4827L6.60688 24.9835L6.12685 25.01C5.96833 25.0188 5.81829 24.9934 5.68211 24.9412L5.50334 25.4082C5.08518 25.2481 4.75192 24.9148 4.59183 24.4967L5.05878 24.3179C5.00664 24.1817 4.98123 24.0317 4.98999 23.8731L5.01653 23.3931L4.51729 23.3655L4.57037 22.4055L5.06961 22.4331L5.12268 21.473L4.62345 21.4454L4.67652 20.4853L5.17576 20.5129L5.2023 20.0329C5.21095 19.8763 5.20181 19.7208 5.17595 19.569L4.68305 19.653C4.6433 19.4197 4.55153 19.1981 4.41466 19.005L4.82257 18.7159C4.73353 18.5903 4.63002 18.4738 4.51317 18.3692L4.15497 18.0485L3.82147 18.4211L3.10508 17.7797L3.43858 17.4072L2.72218 16.7659L2.38869 17.1384L1.67229 16.4971L2.00579 16.1245L1.64759 15.8039C1.52931 15.698 1.44118 15.5739 1.38175 15.4408L0.925159 15.6445C0.742681 15.2356 0.742681 14.7644 0.92516 14.3555L1.38175 14.5592C1.44118 14.4261 1.52931 14.302 1.64759 14.1961L2.00579 13.8755L1.67229 13.5029L2.38869 12.8616L2.72219 13.2341L3.43858 12.5928L3.10508 12.2203L3.82147 11.5789L4.15497 11.9515L4.51317 11.6308C4.63002 11.5262 4.73353 11.4097 4.82257 11.2841L4.41466 10.995C4.55153 10.8019 4.6433 10.5803 4.68305 10.347L5.17595 10.431C5.20181 10.2792 5.21095 10.1237 5.2023 9.96709L5.17576 9.48706L4.67652 9.51466L4.62344 8.5546L5.12268 8.527L5.06961 7.56694L4.57037 7.59454L4.51729 6.63448L5.01653 6.60688L4.98999 6.12685C4.98123 5.96833 5.00664 5.81829 5.05878 5.68211L4.59183 5.50334C4.75192 5.08518 5.08518 4.75192 5.50334 4.59183L5.68211 5.05878C5.81829 5.00664 5.96833 4.98123 6.12685 4.98999L6.60688 5.01653L6.63448 4.51729L7.59454 4.57037L7.56694 5.06961L8.527 5.12268L8.5546 4.62345L9.51466 4.67652L9.48706 5.17576L9.96709 5.2023C10.1237 5.21095 10.2792 5.20181 10.431 5.17595L10.347 4.68305C10.5803 4.6433 10.8019 4.55153 10.995 4.41466L11.2841 4.82257C11.4097 4.73353 11.5262 4.63002 11.6308 4.51317L11.9515 4.15497L11.5789 3.82147L12.2203 3.10508L12.5928 3.43858L13.2341 2.72218L12.8616 2.38869Z" stroke="black" stroke-dasharray="1 1"/>
</svg>
