<svg width="100" height="100" viewBox="0 0 100 100" fill="none" xmlns="http://www.w3.org/2000/svg">
<path d="M46.0786 4.38032C48.1706 2.04346 51.8294 2.04345 53.9214 4.38032L62.4725 13.9322C63.5387 15.1232 65.0883 15.7651 66.6844 15.6769L79.4852 14.9692C82.6168 14.7961 85.2039 17.3831 85.0308 20.5148L84.3231 33.3156C84.2349 34.9117 84.8768 36.4613 86.0678 37.5275L95.6197 46.0786C97.9565 48.1706 97.9565 51.8294 95.6197 53.9214L86.0678 62.4725C84.8768 63.5387 84.2349 65.0883 84.3231 66.6844L85.0308 79.4852C85.2039 82.6168 82.6169 85.2039 79.4852 85.0308L66.6844 84.3231C65.0883 84.2349 63.5387 84.8768 62.4725 86.0678L53.9214 95.6197C51.8294 97.9565 48.1706 97.9565 46.0786 95.6197L37.5275 86.0678C36.4613 84.8768 34.9117 84.2349 33.3156 84.3231L20.5148 85.0308C17.3832 85.2039 14.7961 82.6169 14.9692 79.4852L15.6769 66.6844C15.7651 65.0883 15.1232 63.5387 13.9322 62.4725L4.38032 53.9214C2.04346 51.8294 2.04345 48.1706 4.38032 46.0786L13.9322 37.5275C15.1232 36.4613 15.7651 34.9117 15.6769 33.3156L14.9692 20.5148C14.7961 17.3832 17.3831 14.7961 20.5148 14.9692L33.3156 15.6769C34.9117 15.7651 36.4613 15.1232 37.5275 13.9322L46.0786 4.38032Z" fill="#FFA629"/>
<circle cx="50.0001" cy="50" r="28.9474" fill="#FFDE59"/>
<rect x="62.6318" y="36.8422" width="15.7895" height="44.2105" transform="rotate(90 62.6318 36.8422)" fill="#5D799F"/>
<path d="M21.0527 52.6316L27.6317 39.4738H36.8422L30.2633 52.6316H21.0527Z" fill="#ABBDD6"/>
<path d="M44.7368 52.6316L51.3158 39.4738H55.921L49.3421 52.6316H44.7368Z" fill="#ABBDD6"/>
<path d="M51.3159 52.6316L57.8949 39.4738H59.2107L52.6317 52.6316H51.3159Z" fill="#ABBDD6"/>
<path d="M18.4213 37.8945L18.4213 52.6316L40.5266 52.6316M18.4213 37.8945L62.6318 37.8948L62.6318 52.6316L40.5266 52.6316M18.4213 37.8945L40.5266 37.8948L40.5266 52.6316" stroke="#364F85" stroke-width="4" stroke-linejoin="round"/>
</svg>
