<svg width="30" height="30" viewBox="0 0 30 30" fill="none" xmlns="http://www.w3.org/2000/svg">
<path d="M13.7366 1.4115C14.4105 0.658738 15.589 0.658737 16.2629 1.4115L18.7041 4.13839C19.0475 4.52203 19.5467 4.7288 20.0608 4.70037L23.7152 4.49835C24.724 4.44258 25.5574 5.27595 25.5016 6.28474L25.2996 9.93912C25.2712 10.4532 25.4779 10.9524 25.8616 11.2959L28.5885 13.7371C29.3412 14.4109 29.3412 15.5895 28.5885 16.2634L25.8616 18.7046C25.4779 19.048 25.2712 19.5472 25.2996 20.0613L25.5016 23.7157C25.5574 24.7245 24.724 25.5579 23.7152 25.5021L20.0608 25.3001C19.5467 25.2717 19.0475 25.4784 18.7041 25.8621L16.2629 28.5889C15.589 29.3417 14.4105 29.3417 13.7366 28.589L11.2954 25.8621C10.9519 25.4784 10.4528 25.2717 9.93863 25.3001L6.28426 25.5021C5.27546 25.5579 4.44209 24.7245 4.49786 23.7157L4.69989 20.0613C4.72831 19.5472 4.52154 19.048 4.1379 18.7046L1.41101 16.2634C0.65825 15.5895 0.658249 14.4109 1.41101 13.7371L4.1379 11.2959C4.52154 10.9524 4.72831 10.4532 4.69989 9.93912L4.49786 6.28475C4.44209 5.27595 5.27546 4.44258 6.28426 4.49835L9.93863 4.70037C10.4528 4.7288 10.9519 4.52203 11.2954 4.13839L13.7366 1.4115Z" fill="#FFA629"/>
<circle cx="14.9985" cy="15.0002" r="8.68406" fill="#FFCD00"/>
<rect x="18.7891" y="11.0527" width="4.73676" height="13.2629" transform="rotate(90 18.7891 11.0527)" fill="#5D799F"/>
<path d="M6.31445 15.7896L8.2881 11.8423H11.0512L9.07756 15.7896H6.31445Z" fill="#ABBDD6"/>
<path d="M13.4199 15.7896L15.3936 11.8423H16.7751L14.8015 15.7896H13.4199Z" fill="#ABBDD6"/>
<path d="M15.3926 15.7896L17.3662 11.8423H17.761L15.7873 15.7896H15.3926Z" fill="#ABBDD6"/>
<path d="M5.52614 11.3682L5.52614 15.7892L12.1576 15.7892M5.52614 11.3682L18.7891 11.3682L18.7891 15.7892L12.1576 15.7892M5.52614 11.3682L12.1576 11.3682L12.1576 15.7892" stroke="#364F85" stroke-width="1.2885" stroke-linejoin="round"/>
<path d="M10.5527 19.6319C12.0001 20.4214 15.4474 21.2108 17.6579 18.053C18.0526 18.4477 19 19.0793 19.6315 18.4477" stroke="#FFA629" stroke-width="1.27155" stroke-linecap="round" stroke-linejoin="round"/>
</svg>
