<svg width="30" height="30" viewBox="0 0 30 30" fill="none" xmlns="http://www.w3.org/2000/svg">
<path d="M13.8236 1.3141C14.4512 0.613036 15.5488 0.613036 16.1764 1.3141L18.7417 4.17967C19.0616 4.53696 19.5265 4.72953 20.0053 4.70306L23.8455 4.49076C24.7851 4.43882 25.5612 5.21494 25.5092 6.15445L25.2969 9.99469C25.2705 10.4735 25.463 10.9384 25.8203 11.2583L28.6859 13.8236C29.387 14.4512 29.387 15.5488 28.6859 16.1764L25.8203 18.7417C25.463 19.0616 25.2705 19.5265 25.2969 20.0053L25.5092 23.8455C25.5612 24.7851 24.7851 25.5612 23.8455 25.5092L20.0053 25.2969C19.5265 25.2705 19.0616 25.463 18.7417 25.8203L16.1764 28.6859C15.5488 29.387 14.4512 29.387 13.8236 28.6859L11.2583 25.8203C10.9384 25.463 10.4735 25.2705 9.99469 25.2969L6.15445 25.5092C5.21494 25.5612 4.43882 24.7851 4.49076 23.8455L4.70306 20.0053C4.72953 19.5265 4.53696 19.0616 4.17967 18.7417L1.3141 16.1764C0.613036 15.5488 0.613036 14.4512 1.3141 13.8236L4.17967 11.2583C4.53696 10.9384 4.72953 10.4735 4.70306 9.99469L4.49076 6.15445C4.43882 5.21494 5.21494 4.43882 6.15445 4.49076L9.99469 4.70306C10.4735 4.72953 10.9384 4.53696 11.2583 4.17967L13.8236 1.3141Z" fill="#D9D9D9"/>
</svg>
