<svg width="156" height="74" viewBox="0 0 156 74" fill="none" xmlns="http://www.w3.org/2000/svg">
<g filter="url(#filter0_d_321_2934)">
<path d="M4 13.5727C4 8.28583 8.28582 4 13.5726 4H140.145C145.432 4 149.718 8.28582 149.718 13.5727V52.5726C149.718 57.8595 145.432 62.1453 140.145 62.1453H13.5727C8.28583 62.1453 4 57.8595 4 52.5727V13.5727Z" fill="#FFE6C3" shape-rendering="crispEdges"/>
<path d="M77.3496 54.2822L84.1185 61.0511L77.3496 67.82L70.5807 61.0511L77.3496 54.2822Z" fill="#FFE6C3"/>
<path d="M19.9992 26.8248C19.8712 26.8248 19.7672 26.7808 19.6872 26.6928C19.6072 26.6048 19.5672 26.4488 19.5672 26.2248C19.5672 26.0568 19.6192 25.7848 19.7232 25.4088C19.8352 25.0248 19.9832 24.5768 20.1672 24.0648C20.3592 23.5528 20.5712 23.0128 20.8032 22.4448C21.0432 21.8688 21.2912 21.2968 21.5472 20.7288C21.8032 20.1608 22.0552 19.6368 22.3032 19.1568C22.5512 18.6688 22.7792 18.2568 22.9872 17.9208C23.1952 17.5848 23.3712 17.3648 23.5152 17.2608C23.6832 17.1408 23.8392 17.0808 23.9832 17.0808C24.0632 17.0808 24.1432 17.0888 24.2232 17.1048C24.3032 17.1208 24.3712 17.1488 24.4272 17.1888C24.5712 17.2768 24.6952 17.4728 24.7992 17.7768C24.9112 18.0728 25.0072 18.4368 25.0872 18.8688C25.1672 19.2928 25.2312 19.7488 25.2792 20.2368C25.3352 20.7168 25.3832 21.1928 25.4232 21.6648C25.6632 21.6328 25.8632 21.6088 26.0232 21.5928C26.1832 21.5768 26.2992 21.5688 26.3712 21.5688C26.6432 21.5688 26.8152 21.6048 26.8872 21.6768C26.9592 21.7488 26.9992 21.8328 27.0072 21.9288C27.0232 22.0728 26.9832 22.2008 26.8872 22.3128C26.7912 22.4248 26.6552 22.5088 26.4792 22.5648C26.4232 22.5808 26.3032 22.6088 26.1192 22.6488C25.9432 22.6808 25.7312 22.7208 25.4832 22.7688C25.4912 23.0088 25.4952 23.2328 25.4952 23.4408C25.5032 23.6408 25.5072 23.8128 25.5072 23.9568C25.5072 24.6848 25.4632 25.2328 25.3752 25.6008C25.2872 25.9608 25.1792 26.2048 25.0512 26.3328C24.9232 26.4608 24.7992 26.5248 24.6792 26.5248C24.5352 26.5248 24.4352 26.4848 24.3792 26.4048C24.3232 26.3168 24.2952 26.1928 24.2952 26.0328V25.1808C24.2952 24.8848 24.2912 24.5488 24.2832 24.1728C24.2832 23.7888 24.2792 23.3848 24.2712 22.9608C23.7992 23.0408 23.3192 23.1168 22.8312 23.1888C22.3512 23.2608 21.9352 23.3248 21.5832 23.3808C21.4072 23.8368 21.2552 24.2488 21.1272 24.6168C20.9992 24.9768 20.9112 25.2528 20.8632 25.4448C20.7432 25.8448 20.6352 26.1448 20.5392 26.3448C20.4432 26.5368 20.3512 26.6648 20.2632 26.7288C20.1832 26.7928 20.0952 26.8248 19.9992 26.8248ZM21.9912 22.3128C22.4072 22.2168 22.8032 22.1288 23.1792 22.0488C23.5632 21.9688 23.9152 21.9008 24.2352 21.8448C24.2112 21.1248 24.1672 20.4368 24.1032 19.7808C24.0472 19.1168 23.9632 18.5928 23.8512 18.2088C23.6992 18.4728 23.5192 18.8248 23.3112 19.2648C23.1032 19.7048 22.8832 20.1928 22.6512 20.7288C22.4272 21.2568 22.2072 21.7848 21.9912 22.3128ZM30.9791 19.6608C30.6351 19.6608 30.4031 19.6128 30.2831 19.5168C30.1711 19.4208 30.1151 19.3288 30.1151 19.2408C30.1151 19.1128 30.1791 18.9968 30.3071 18.8928C30.4431 18.7888 30.6071 18.7168 30.7991 18.6768C31.0311 18.6288 31.3111 18.5808 31.6391 18.5328C31.9751 18.4768 32.3231 18.4288 32.6831 18.3888C33.0431 18.3408 33.3951 18.3048 33.7391 18.2808C34.0831 18.2568 34.3831 18.2448 34.6391 18.2448C34.9751 18.2448 35.2311 18.3088 35.4071 18.4368C35.5911 18.5568 35.6831 18.6688 35.6831 18.7728C35.6831 18.7808 35.6831 18.7968 35.6831 18.8208C35.6831 18.8848 35.6711 18.9408 35.6471 18.9888C35.6231 19.0368 35.5431 19.0848 35.4071 19.1328C35.2791 19.1728 35.0591 19.2168 34.7471 19.2648C34.4431 19.3048 34.0111 19.3488 33.4511 19.3968C33.3391 19.4048 33.2151 19.4168 33.0791 19.4328C33.0471 19.6488 32.9991 19.9328 32.9351 20.2848C32.8711 20.6368 32.7991 21.0288 32.7191 21.4608C32.6391 21.8928 32.5551 22.3368 32.4671 22.7928C32.3791 23.2408 32.2911 23.6688 32.2031 24.0768C32.1231 24.4848 32.0511 24.8448 31.9871 25.1568C31.9311 25.4688 31.8871 25.7048 31.8551 25.8648C32.2711 25.8088 32.6391 25.7728 32.9591 25.7568C33.2871 25.7328 33.5071 25.7208 33.6191 25.7208C33.9151 25.7208 34.0631 25.8328 34.0631 26.0568C34.0631 26.1208 33.9271 26.2128 33.6551 26.3328C33.3831 26.4528 33.0351 26.5768 32.6111 26.7048C32.1871 26.8328 31.7471 26.9528 31.2911 27.0648C30.9151 27.1528 30.5431 27.2208 30.1751 27.2688C29.8151 27.3168 29.5551 27.3408 29.3951 27.3408C29.2191 27.3408 29.0951 27.3088 29.0231 27.2448C28.9511 27.1888 28.9151 27.1048 28.9151 26.9928C28.9151 26.8808 28.9471 26.7688 29.0111 26.6568C29.0831 26.5448 29.1791 26.4648 29.2991 26.4168C29.5151 26.3368 29.7551 26.2648 30.0191 26.2008C30.2831 26.1288 30.5511 26.0648 30.8231 26.0088C30.8231 25.9688 30.8231 25.9208 30.8231 25.8648C30.8231 25.7528 30.8431 25.5408 30.8831 25.2288C30.9311 24.9168 30.9911 24.5448 31.0631 24.1128C31.1351 23.6728 31.2151 23.2168 31.3031 22.7448C31.3911 22.2648 31.4751 21.8088 31.5551 21.3768C31.6351 20.9368 31.7071 20.5568 31.7711 20.2368C31.8351 19.9088 31.8831 19.6888 31.9151 19.5768C31.7151 19.6008 31.5351 19.6208 31.3751 19.6368C31.2151 19.6528 31.0831 19.6608 30.9791 19.6608ZM36.4833 25.0608C37.1873 24.7088 37.8073 24.3088 38.3433 23.8608C38.8793 23.4128 39.3313 22.9288 39.6993 22.4088C40.0753 21.8888 40.3753 21.3448 40.5993 20.7768C40.8233 20.2008 40.9753 19.6128 41.0553 19.0128C40.5673 19.0288 40.0833 19.0408 39.6033 19.0488C39.1233 19.0488 38.6433 19.0488 38.1633 19.0488H36.9273V18.1608H38.8113C39.3713 18.1608 39.9313 18.1608 40.4913 18.1608C41.0513 18.1608 41.6153 18.1528 42.1833 18.1368C42.0713 19.7848 41.6153 21.2608 40.8153 22.5648C40.0153 23.8608 38.8033 24.9448 37.1793 25.8168L36.4833 25.0608ZM46.8753 22.3608H44.9913V28.1688H43.9593V17.2128H44.9913V21.4488H46.8753V22.3608ZM54.2941 18.5688C53.8461 18.5848 53.4021 18.5968 52.9621 18.6048C52.5301 18.6048 52.0941 18.6048 51.6541 18.6048H50.4901V17.7168H52.4701C52.9821 17.7168 53.4981 17.7168 54.0181 17.7168C54.5461 17.7168 55.0901 17.7088 55.6501 17.6928C55.6101 18.1408 55.4901 18.5648 55.2901 18.9648C55.0901 19.3568 54.8381 19.7328 54.5341 20.0928C54.6861 20.2608 54.8581 20.4248 55.0501 20.5848C55.2421 20.7448 55.4461 20.8968 55.6621 21.0408C55.8781 21.1848 56.0941 21.3208 56.3101 21.4488C56.5341 21.5688 56.7501 21.6768 56.9581 21.7728L56.2861 22.4688C55.8621 22.2448 55.4461 21.9888 55.0381 21.7008C54.6301 21.4048 54.2581 21.0768 53.9221 20.7168C53.6581 20.9568 53.3781 21.1808 53.0821 21.3888C52.7941 21.5888 52.4981 21.7728 52.1941 21.9408C51.8981 22.1008 51.6021 22.2448 51.3061 22.3728C51.0181 22.5008 50.7461 22.6048 50.4901 22.6848L49.8181 21.9888C50.3381 21.8288 50.8381 21.6288 51.3181 21.3888C51.7981 21.1408 52.2341 20.8688 52.6261 20.5728C53.0261 20.2688 53.3701 19.9488 53.6581 19.6128C53.9461 19.2688 54.1581 18.9208 54.2941 18.5688ZM60.1621 20.3568H58.4341V22.6968H57.4021V17.2128H58.4341V19.4448H60.1621V20.3568ZM58.6741 28.0488H51.6301V25.1928H57.4141V24.1968H51.6301V23.3208H58.4341V26.0448H52.6501V27.1728H58.6741V28.0488ZM68.0413 20.3448V18.4248H63.2053V20.3448H68.0413ZM62.1493 21.2208V17.5128H69.0973V21.2208H66.1453V22.7928H70.8493V23.6808H60.4093V22.7928H65.0773V21.2208H62.1493ZM61.7533 28.1568L61.1893 27.3048C61.7253 27.2088 62.2373 27.0728 62.7253 26.8968C63.2133 26.7288 63.6413 26.5168 64.0093 26.2608C64.3773 25.9968 64.6693 25.6968 64.8853 25.3608C65.1093 25.0168 65.2293 24.6288 65.2453 24.1968H66.3253C66.3173 24.3808 66.2933 24.5608 66.2533 24.7368C66.2133 24.9048 66.1613 25.0688 66.0973 25.2288C66.2973 25.5248 66.5413 25.7808 66.8293 25.9968C67.1253 26.2128 67.4453 26.4048 67.7893 26.5728C68.1413 26.7328 68.5093 26.8688 68.8933 26.9808C69.2853 27.1008 69.6813 27.2088 70.0813 27.3048L69.5173 28.1568C69.1333 28.0768 68.7493 27.9648 68.3653 27.8208C67.9813 27.6848 67.6133 27.5248 67.2613 27.3408C66.9173 27.1568 66.5973 26.9568 66.3013 26.7408C66.0133 26.5248 65.7693 26.3008 65.5693 26.0688C65.1453 26.5888 64.5933 27.0288 63.9133 27.3888C63.2333 27.7488 62.5133 28.0048 61.7533 28.1568ZM74.1522 18.7248V17.8368H80.3202V18.7248H74.1522ZM75.2682 22.3728L75.2082 19.1688H76.2042L76.2642 22.3728H77.2602C77.4282 22.3728 77.6002 22.3728 77.7762 22.3728C77.9522 22.3648 78.1322 22.3568 78.3162 22.3488L78.3642 19.1688H79.3482L79.3002 22.2888C79.6042 22.2648 79.8962 22.2328 80.1762 22.1928C80.4642 22.1528 80.7362 22.1008 80.9922 22.0368V22.8768C80.7522 22.9408 80.4802 22.9968 80.1762 23.0448C79.8802 23.0928 79.5682 23.1328 79.2402 23.1648C78.9202 23.1888 78.5922 23.2088 78.2562 23.2248C77.9202 23.2328 77.5922 23.2368 77.2722 23.2368H73.9242V22.3728H75.2682ZM84.2442 21.1008H82.5162V25.2528H81.4842V17.2128H82.5162V20.1888H84.2442V21.1008ZM82.7562 27.9528H75.9162V24.6888H76.9602V27.0528H82.7562V27.9528ZM85.1514 17.7888H90.2394V18.6768H86.2074V22.2888H87.6474C88.4554 22.2888 89.1954 22.2448 89.8674 22.1568C90.5394 22.0688 91.0874 21.9848 91.5114 21.9048V22.7448C91.2794 22.8008 91.0074 22.8568 90.6954 22.9128C90.3834 22.9608 90.0514 23.0048 89.6994 23.0448C89.3474 23.0768 88.9834 23.1048 88.6074 23.1288C88.2314 23.1528 87.8634 23.1648 87.5034 23.1648H85.1514V17.7888ZM94.9434 21.0888H93.2154V25.2528H92.1834V17.2248H93.2154V20.1768H94.9434V21.0888ZM93.4554 27.9528H86.5554V24.7488H87.5994V27.0528H93.4554V27.9528ZM95.4426 19.5648V18.7608H100.843V19.5648H95.4426ZM96.7146 18.1128V17.3088H99.7626V18.1128H96.7146ZM98.2386 23.6328C97.8546 23.6328 97.5186 23.5848 97.2306 23.4888C96.9426 23.3928 96.7066 23.2648 96.5226 23.1048C96.3386 22.9368 96.1986 22.7448 96.1026 22.5288C96.0146 22.3128 95.9706 22.0848 95.9706 21.8448C95.9706 21.6128 96.0146 21.3928 96.1026 21.1848C96.1986 20.9688 96.3386 20.7808 96.5226 20.6208C96.7066 20.4608 96.9426 20.3328 97.2306 20.2368C97.5186 20.1408 97.8546 20.0928 98.2386 20.0928C98.6306 20.0928 98.9706 20.1408 99.2586 20.2368C99.5546 20.3328 99.7946 20.4608 99.9786 20.6208C100.163 20.7808 100.299 20.9688 100.387 21.1848C100.483 21.3928 100.531 21.6128 100.531 21.8448C100.531 22.0848 100.483 22.3128 100.387 22.5288C100.299 22.7448 100.163 22.9368 99.9786 23.1048C99.7946 23.2648 99.5546 23.3928 99.2586 23.4888C98.9706 23.5848 98.6306 23.6328 98.2386 23.6328ZM98.2386 22.8408C98.7346 22.8408 99.0866 22.7408 99.2946 22.5408C99.5026 22.3408 99.6066 22.1128 99.6066 21.8568C99.6066 21.7288 99.5786 21.6048 99.5226 21.4848C99.4746 21.3648 99.3946 21.2568 99.2826 21.1608C99.1786 21.0648 99.0386 20.9888 98.8626 20.9328C98.6946 20.8768 98.4866 20.8488 98.2386 20.8488C97.9986 20.8488 97.7906 20.8768 97.6146 20.9328C97.4466 20.9888 97.3066 21.0648 97.1946 21.1608C97.0906 21.2568 97.0146 21.3648 96.9666 21.4848C96.9186 21.6048 96.8946 21.7288 96.8946 21.8568C96.8946 22.1128 96.9986 22.3408 97.2066 22.5408C97.4146 22.7408 97.7586 22.8408 98.2386 22.8408ZM104.707 23.8248H103.711V21.0408H102.523V23.8248H101.539V17.3328H102.523V20.1768H103.711V17.2128H104.707V23.8248ZM103.267 25.3728C103.427 25.7728 103.711 26.1368 104.119 26.4648C104.527 26.7928 105.043 27.0968 105.667 27.3768L105.007 28.1208C104.543 27.9208 104.127 27.6688 103.759 27.3648C103.399 27.0688 103.103 26.7408 102.871 26.3808C102.663 26.7488 102.395 27.0768 102.067 27.3648C101.747 27.6608 101.379 27.9208 100.963 28.1448C100.603 27.9288 100.271 27.6688 99.9666 27.3648C99.6706 27.0608 99.4106 26.7248 99.1866 26.3568C98.9466 26.7568 98.6346 27.1008 98.2506 27.3888C97.8746 27.6848 97.4466 27.9368 96.9666 28.1448L96.2346 27.4248C96.6106 27.2648 96.9506 27.0848 97.2546 26.8848C97.5666 26.6848 97.8306 26.4648 98.0466 26.2248C98.2626 25.9848 98.4266 25.7168 98.5386 25.4208C98.6506 25.1248 98.6946 24.8008 98.6706 24.4488H99.7266C99.7266 24.6088 99.7146 24.7688 99.6906 24.9288C99.6746 25.0808 99.6466 25.2288 99.6066 25.3728C99.7666 25.7088 99.9706 26.0168 100.219 26.2968C100.467 26.5688 100.743 26.8008 101.047 26.9928C101.247 26.8408 101.431 26.6808 101.599 26.5128C101.767 26.3448 101.911 26.1608 102.031 25.9608C102.151 25.7528 102.239 25.5248 102.295 25.2768C102.359 25.0288 102.375 24.7488 102.343 24.4368H103.375C103.375 24.7728 103.339 25.0848 103.267 25.3728ZM108.926 25.0728H106.55V18.0048H107.618V24.1488H109.07C109.878 24.1488 110.618 24.0968 111.29 23.9928C111.962 23.8888 112.51 23.7888 112.934 23.6928V24.5928C112.702 24.6568 112.43 24.7168 112.118 24.7728C111.806 24.8288 111.474 24.8808 111.122 24.9288C110.77 24.9688 110.406 25.0048 110.03 25.0368C109.654 25.0608 109.286 25.0728 108.926 25.0728ZM116.438 22.2048H114.554V28.1688H113.522V17.2128H114.554V21.2928H116.438V22.2048ZM125.445 20.5368C125.445 20.9528 125.357 21.3368 125.181 21.6888C125.013 22.0408 124.769 22.3448 124.449 22.6008C124.137 22.8568 123.757 23.0568 123.309 23.2008C122.861 23.3448 122.361 23.4168 121.809 23.4168C121.257 23.4168 120.757 23.3448 120.309 23.2008C119.861 23.0568 119.477 22.8568 119.157 22.6008C118.845 22.3448 118.601 22.0408 118.425 21.6888C118.257 21.3368 118.173 20.9528 118.173 20.5368C118.173 20.1208 118.257 19.7368 118.425 19.3848C118.601 19.0328 118.845 18.7288 119.157 18.4728C119.477 18.2168 119.861 18.0168 120.309 17.8728C120.757 17.7288 121.257 17.6568 121.809 17.6568C122.361 17.6568 122.861 17.7288 123.309 17.8728C123.757 18.0168 124.137 18.2168 124.449 18.4728C124.769 18.7288 125.013 19.0328 125.181 19.3848C125.357 19.7368 125.445 20.1208 125.445 20.5368ZM124.389 20.5368C124.389 20.2648 124.333 20.0088 124.221 19.7688C124.117 19.5288 123.957 19.3208 123.741 19.1448C123.533 18.9608 123.265 18.8168 122.937 18.7128C122.617 18.6088 122.241 18.5568 121.809 18.5568C121.377 18.5568 120.997 18.6088 120.669 18.7128C120.349 18.8168 120.081 18.9608 119.865 19.1448C119.657 19.3208 119.497 19.5288 119.385 19.7688C119.281 20.0088 119.229 20.2648 119.229 20.5368C119.229 20.8088 119.281 21.0648 119.385 21.3048C119.497 21.5448 119.657 21.7568 119.865 21.9408C120.081 22.1248 120.349 22.2728 120.669 22.3848C120.997 22.4888 121.377 22.5408 121.809 22.5408C122.241 22.5408 122.617 22.4888 122.937 22.3848C123.265 22.2728 123.533 22.1248 123.741 21.9408C123.957 21.7568 124.117 21.5448 124.221 21.3048C124.333 21.0648 124.389 20.8088 124.389 20.5368ZM126.909 25.6008V26.4768H116.709V25.6008H119.205V23.5728H120.237V25.6008H123.465V23.5728H124.497V25.6008H126.909ZM128.272 19.2888C128.232 19.3288 128.196 19.3448 128.164 19.3368C128.14 19.3208 128.128 19.2808 128.128 19.2168V18.2568C128.464 18.0488 128.804 17.8848 129.148 17.7648C129.492 17.6368 129.856 17.5728 130.24 17.5728C130.624 17.5728 130.972 17.6208 131.284 17.7168C131.604 17.8048 131.876 17.9368 132.1 18.1128C132.324 18.2888 132.496 18.5048 132.616 18.7608C132.744 19.0088 132.808 19.2928 132.808 19.6128C132.808 19.8448 132.768 20.0728 132.688 20.2968C132.608 20.5128 132.504 20.7208 132.376 20.9208C132.256 21.1208 132.12 21.3088 131.968 21.4848C131.816 21.6528 131.668 21.8088 131.524 21.9528C131.396 22.0808 131.276 22.2008 131.164 22.3128C131.06 22.4168 130.968 22.5288 130.888 22.6488C130.816 22.7688 130.756 22.9008 130.708 23.0448C130.668 23.1808 130.648 23.3408 130.648 23.5248C130.648 23.6928 130.656 23.8528 130.672 24.0048C130.696 24.1488 130.724 24.2968 130.756 24.4488H129.808C129.736 24.1528 129.7 23.8368 129.7 23.5008C129.7 23.0768 129.788 22.7168 129.964 22.4208C130.14 22.1248 130.372 21.8288 130.66 21.5328C130.796 21.4048 130.928 21.2768 131.056 21.1488C131.192 21.0128 131.308 20.8728 131.404 20.7288C131.508 20.5768 131.592 20.4208 131.656 20.2608C131.72 20.0928 131.752 19.9168 131.752 19.7328C131.752 19.3008 131.604 18.9808 131.308 18.7728C131.012 18.5648 130.616 18.4608 130.12 18.4608C129.752 18.4608 129.42 18.5328 129.124 18.6768C128.828 18.8208 128.544 19.0248 128.272 19.2888ZM130.264 25.6368C130.504 25.6368 130.7 25.7128 130.852 25.8648C131.004 26.0168 131.08 26.2088 131.08 26.4408C131.08 26.6728 131.004 26.8648 130.852 27.0168C130.7 27.1688 130.504 27.2448 130.264 27.2448C130.024 27.2448 129.828 27.1688 129.676 27.0168C129.524 26.8648 129.448 26.6728 129.448 26.4408C129.448 26.2088 129.524 26.0168 129.676 25.8648C129.828 25.7128 130.024 25.6368 130.264 25.6368Z" fill="black"/>
<path d="M19.9811 35.8768V34.2448H27.1491V35.8768H19.9811ZM21.0691 42.2448L20.9571 36.3568H22.7651L22.8611 42.2448H24.3331V36.3568H26.1411L26.0611 42.1008C26.2957 42.0794 26.5304 42.0474 26.7651 42.0048C26.9997 41.9514 27.2397 41.8981 27.4851 41.8448V43.4608C26.8664 43.6421 26.2104 43.7594 25.5171 43.8128C24.8344 43.8661 24.1517 43.8928 23.4691 43.8928H19.8691V42.2448H21.0691ZM32.6371 47.8288H30.7651V39.7168H29.7411V47.4608H27.9171V33.1568H29.7411V38.0528H30.7651V32.9968H32.6371V47.8288ZM40.4387 36.7248V35.1088H44.6787V32.9968H46.6627V40.3408H44.6787V36.7248H40.4387ZM46.9507 47.6688H37.1907V43.4928H44.6947V42.5968H37.1907V40.9648H46.6627V45.1088H39.1267V46.0368H46.9507V47.6688ZM38.1987 39.8448H35.2387V33.4608H37.2707V38.2448H38.5987C40.4867 38.2448 42.2414 38.0368 43.8627 37.6208V39.1888C43.0094 39.4341 42.0974 39.6048 41.1267 39.7008C40.156 39.7968 39.18 39.8448 38.1987 39.8448ZM58.9443 32.9968H60.9283V47.8288H58.9443V32.9968ZM56.8643 39.2048C56.8643 40.0688 56.7683 40.8368 56.5763 41.5088C56.395 42.1701 56.1336 42.7301 55.7923 43.1888C55.451 43.6474 55.0403 43.9941 54.5603 44.2288C54.091 44.4634 53.563 44.5808 52.9763 44.5808C52.3896 44.5808 51.8563 44.4634 51.3763 44.2288C50.907 43.9941 50.5016 43.6474 50.1603 43.1888C49.819 42.7301 49.5523 42.1701 49.3603 41.5088C49.179 40.8368 49.0883 40.0688 49.0883 39.2048C49.0883 38.3408 49.179 37.5781 49.3603 36.9168C49.5523 36.2448 49.819 35.6794 50.1603 35.2208C50.5016 34.7621 50.907 34.4154 51.3763 34.1808C51.8563 33.9461 52.3896 33.8288 52.9763 33.8288C53.563 33.8288 54.091 33.9461 54.5603 34.1808C55.0403 34.4154 55.451 34.7621 55.7923 35.2208C56.1336 35.6794 56.395 36.2448 56.5763 36.9168C56.7683 37.5781 56.8643 38.3408 56.8643 39.2048ZM54.8483 39.2048C54.8483 38.0528 54.683 37.1514 54.3523 36.5008C54.0323 35.8501 53.5736 35.5248 52.9763 35.5248C52.379 35.5248 51.915 35.8501 51.5843 36.5008C51.2643 37.1514 51.1043 38.0528 51.1043 39.2048C51.1043 40.3568 51.2643 41.2581 51.5843 41.9088C51.915 42.5594 52.379 42.8848 52.9763 42.8848C53.5736 42.8848 54.0323 42.5594 54.3523 41.9088C54.683 41.2581 54.8483 40.3568 54.8483 39.2048ZM80.4521 40.0208H78.1321V47.8288H76.1481V32.9968H78.1321V38.3408H80.4521V40.0208ZM74.5321 39.2048C74.5321 40.0688 74.4414 40.8368 74.2601 41.5088C74.0787 42.1701 73.8174 42.7301 73.4761 43.1888C73.1454 43.6474 72.7401 43.9941 72.2601 44.2288C71.7907 44.4634 71.2627 44.5808 70.6761 44.5808C70.0894 44.5808 69.5561 44.4634 69.0761 44.2288C68.6067 43.9941 68.2014 43.6474 67.8601 43.1888C67.5294 42.7301 67.2734 42.1701 67.0921 41.5088C66.9107 40.8368 66.8201 40.0688 66.8201 39.2048C66.8201 38.3408 66.9107 37.5781 67.0921 36.9168C67.2734 36.2448 67.5294 35.6794 67.8601 35.2208C68.2014 34.7621 68.6067 34.4154 69.0761 34.1808C69.5561 33.9461 70.0894 33.8288 70.6761 33.8288C71.2627 33.8288 71.7907 33.9461 72.2601 34.1808C72.7401 34.4154 73.1454 34.7621 73.4761 35.2208C73.8174 35.6794 74.0787 36.2448 74.2601 36.9168C74.4414 37.5781 74.5321 38.3408 74.5321 39.2048ZM72.5161 39.2048C72.5161 38.0528 72.3561 37.1514 72.0361 36.5008C71.7267 35.8501 71.2734 35.5248 70.6761 35.5248C70.0787 35.5248 69.6201 35.8501 69.3001 36.5008C68.9907 37.1514 68.8361 38.0528 68.8361 39.2048C68.8361 40.3568 68.9907 41.2581 69.3001 41.9088C69.6201 42.5594 70.0787 42.8848 70.6761 42.8848C71.2734 42.8848 71.7267 42.5594 72.0361 41.9088C72.3561 41.2581 72.5161 40.3568 72.5161 39.2048ZM85.1017 41.1248H81.6457V33.5408H83.6777V39.4288H85.4857C86.435 39.4288 87.3417 39.3594 88.2057 39.2208C89.0697 39.0821 89.8804 38.9328 90.6377 38.7728V40.4368C90.2857 40.5328 89.891 40.6234 89.4537 40.7088C89.0164 40.7834 88.5524 40.8528 88.0617 40.9168C87.5817 40.9808 87.0857 41.0341 86.5737 41.0768C86.0724 41.1088 85.5817 41.1248 85.1017 41.1248ZM91.0537 32.9968H93.0377V43.8768H91.0537V32.9968ZM93.3257 47.5408H83.6297V42.8528H85.5977V45.8608H93.3257V47.5408ZM94.9033 43.4128C95.906 42.9328 96.7646 42.4048 97.4793 41.8288C98.2046 41.2421 98.8073 40.6288 99.2873 39.9888C99.7673 39.3381 100.135 38.6661 100.391 37.9728C100.658 37.2794 100.834 36.5861 100.919 35.8928C99.7353 35.9248 98.5513 35.9408 97.3673 35.9408H95.6713V34.2448H98.2153C98.9726 34.2448 99.7406 34.2448 100.519 34.2448C101.309 34.2448 102.157 34.2341 103.063 34.2128C102.989 35.3648 102.813 36.4474 102.535 37.4608C102.258 38.4741 101.847 39.4234 101.303 40.3088C100.759 41.1834 100.071 41.9941 99.2393 42.7408C98.4073 43.4874 97.4046 44.1754 96.2313 44.8048L94.9033 43.4128ZM108.983 40.2288H106.663V47.8288H104.679V32.9968H106.663V38.5328H108.983V40.2288ZM122.961 44.1168V45.7648H109.233V44.1168H112.289V41.7168H114.273V44.1168H118.001V41.7168H119.985V44.1168H122.961ZM121.073 37.5408C121.073 38.0954 120.956 38.6074 120.721 39.0768C120.486 39.5461 120.15 39.9514 119.713 40.2928C119.286 40.6341 118.764 40.9008 118.145 41.0928C117.537 41.2848 116.854 41.3808 116.097 41.3808C115.34 41.3808 114.652 41.2848 114.033 41.0928C113.425 40.9008 112.902 40.6341 112.465 40.2928C112.038 39.9514 111.708 39.5461 111.473 39.0768C111.238 38.6074 111.121 38.0954 111.121 37.5408C111.121 36.9861 111.238 36.4741 111.473 36.0048C111.708 35.5248 112.038 35.1088 112.465 34.7568C112.902 34.4048 113.425 34.1328 114.033 33.9408C114.652 33.7381 115.34 33.6368 116.097 33.6368C116.854 33.6368 117.537 33.7381 118.145 33.9408C118.764 34.1328 119.286 34.4048 119.713 34.7568C120.15 35.1088 120.486 35.5248 120.721 36.0048C120.956 36.4741 121.073 36.9861 121.073 37.5408ZM119.057 37.5248C119.057 37.2048 118.988 36.9061 118.849 36.6288C118.721 36.3514 118.529 36.1168 118.273 35.9248C118.028 35.7221 117.718 35.5621 117.345 35.4448C116.982 35.3274 116.566 35.2688 116.097 35.2688C115.628 35.2688 115.206 35.3274 114.833 35.4448C114.47 35.5621 114.161 35.7221 113.905 35.9248C113.66 36.1168 113.468 36.3514 113.329 36.6288C113.201 36.9061 113.137 37.2048 113.137 37.5248C113.137 37.8448 113.201 38.1434 113.329 38.4208C113.468 38.6981 113.66 38.9381 113.905 39.1408C114.161 39.3328 114.47 39.4874 114.833 39.6048C115.206 39.7221 115.628 39.7808 116.097 39.7808C116.566 39.7808 116.982 39.7221 117.345 39.6048C117.718 39.4874 118.028 39.3328 118.273 39.1408C118.529 38.9381 118.721 38.6981 118.849 38.4208C118.988 38.1434 119.057 37.8448 119.057 37.5248ZM127.371 44.0048C127.765 44.0048 128.096 44.1381 128.363 44.4048C128.64 44.6608 128.779 44.9648 128.779 45.3168C128.779 45.6688 128.64 45.9728 128.363 46.2288C128.096 46.4848 127.765 46.6128 127.371 46.6128C126.987 46.6128 126.667 46.4848 126.411 46.2288C126.155 45.9728 126.027 45.6688 126.027 45.3168C126.027 44.9648 126.155 44.6608 126.411 44.4048C126.667 44.1381 126.987 44.0048 127.371 44.0048ZM124.603 36.4208C124.56 36.4741 124.512 36.4848 124.459 36.4528C124.405 36.4208 124.379 36.3728 124.379 36.3088V34.4848C124.805 34.1648 125.285 33.9194 125.819 33.7488C126.363 33.5674 126.891 33.4768 127.403 33.4768C128.565 33.4768 129.451 33.7381 130.059 34.2608C130.677 34.7728 130.987 35.4821 130.987 36.3888C130.987 36.7194 130.928 37.0394 130.811 37.3488C130.704 37.6474 130.565 37.9354 130.395 38.2128C130.235 38.4794 130.048 38.7301 129.835 38.9648C129.632 39.1994 129.435 39.4074 129.243 39.5888C129.083 39.7488 128.933 39.8981 128.795 40.0368C128.667 40.1754 128.555 40.3194 128.459 40.4688C128.363 40.6074 128.288 40.7568 128.235 40.9168C128.192 41.0768 128.171 41.2688 128.171 41.4928C128.171 41.6954 128.181 41.8981 128.203 42.1008C128.224 42.2928 128.288 42.5594 128.395 42.9008H126.571C126.485 42.6554 126.427 42.4048 126.395 42.1488C126.373 41.8928 126.363 41.6528 126.363 41.4288C126.363 41.1301 126.395 40.8634 126.459 40.6288C126.523 40.3834 126.613 40.1541 126.731 39.9408C126.848 39.7274 126.981 39.5248 127.131 39.3328C127.291 39.1301 127.467 38.9328 127.659 38.7408C128.011 38.4101 128.315 38.0794 128.571 37.7488C128.837 37.4181 128.971 37.0341 128.971 36.5968C128.971 36.0848 128.816 35.7114 128.507 35.4768C128.197 35.2421 127.755 35.1248 127.179 35.1248C126.763 35.1248 126.331 35.2261 125.883 35.4288C125.435 35.6314 125.008 35.9621 124.603 36.4208Z" fill="black"/>
</g>
<defs>
<filter id="filter0_d_321_2934" x="0.410256" y="0.410256" width="155.291" height="73.3925" filterUnits="userSpaceOnUse" color-interpolation-filters="sRGB">
<feFlood flood-opacity="0" result="BackgroundImageFix"/>
<feColorMatrix in="SourceAlpha" type="matrix" values="0 0 0 0 0 0 0 0 0 0 0 0 0 0 0 0 0 0 127 0" result="hardAlpha"/>
<feOffset dx="1.19658" dy="1.19658"/>
<feGaussianBlur stdDeviation="2.39316"/>
<feComposite in2="hardAlpha" operator="out"/>
<feColorMatrix type="matrix" values="0 0 0 0 0 0 0 0 0 0 0 0 0 0 0 0 0 0 0.25 0"/>
<feBlend mode="normal" in2="BackgroundImageFix" result="effect1_dropShadow_321_2934"/>
<feBlend mode="normal" in="SourceGraphic" in2="effect1_dropShadow_321_2934" result="shape"/>
</filter>
</defs>
</svg>
