<svg width="51" height="59" viewBox="0 0 51 59" fill="none" xmlns="http://www.w3.org/2000/svg">
<mask id="path-1-outside-1_74_824" maskUnits="userSpaceOnUse" x="0" y="0" width="51" height="59" fill="black">
<rect fill="white" width="51" height="59"/>
<path fill-rule="evenodd" clip-rule="evenodd" d="M38.6912 37C41.3746 33.9246 43 29.9021 43 25.5C43 15.835 35.165 8 25.5 8C15.835 8 8 15.835 8 25.5C8 29.9021 9.62539 33.9246 12.3088 37H12.2958L12.4269 37.134C12.7919 37.5439 13.1759 37.9365 13.5775 38.3104L25.5 50.5L37.3381 38.3885C37.8015 37.9626 38.2419 37.5121 38.6571 37.039L38.6952 37H38.6912Z"/>
</mask>
<path fill-rule="evenodd" clip-rule="evenodd" d="M38.6912 37C41.3746 33.9246 43 29.9021 43 25.5C43 15.835 35.165 8 25.5 8C15.835 8 8 15.835 8 25.5C8 29.9021 9.62539 33.9246 12.3088 37H12.2958L12.4269 37.134C12.7919 37.5439 13.1759 37.9365 13.5775 38.3104L25.5 50.5L37.3381 38.3885C37.8015 37.9626 38.2419 37.5121 38.6571 37.039L38.6952 37H38.6912Z" fill="#364F85"/>
<path d="M38.6912 37L32.6632 31.7404C30.6008 34.1042 30.1102 37.4551 31.4085 40.3109C32.7068 43.1666 35.5543 45 38.6912 45V37ZM12.3088 37V45C15.4457 45 18.2932 43.1666 19.5915 40.3109C20.8898 37.4551 20.3992 34.1042 18.3368 31.7404L12.3088 37ZM12.2958 37V29C9.07624 29 6.17038 30.93 4.92185 33.8976C3.67331 36.8653 4.32542 40.2922 6.57665 42.5938L12.2958 37ZM12.4269 37.134L18.4012 31.8136C18.3183 31.7205 18.2332 31.6293 18.1461 31.5402L12.4269 37.134ZM13.5775 38.3104L19.2967 32.7166C19.2096 32.6275 19.1203 32.5404 19.0291 32.4555L13.5775 38.3104ZM25.5 50.5L19.7808 56.0938C21.2862 57.633 23.3484 58.5004 25.5014 58.5C27.6543 58.4996 29.7162 57.6315 31.2211 56.0919L25.5 50.5ZM37.3381 38.3885L31.9249 32.4981C31.8196 32.5948 31.7169 32.6943 31.617 32.7966L37.3381 38.3885ZM38.6571 37.039L32.9361 31.447C32.8362 31.5493 32.7389 31.6542 32.6446 31.7617L38.6571 37.039ZM38.6952 37L44.4162 42.592C46.6664 40.2899 47.3175 36.8634 46.0687 33.8964C44.8199 30.9294 41.9143 29 38.6952 29V37ZM35 25.5C35 27.8955 34.1238 30.0665 32.6632 31.7404L44.7193 42.2596C48.6254 37.7827 51 31.9087 51 25.5H35ZM25.5 16C30.7467 16 35 20.2533 35 25.5H51C51 11.4167 39.5833 0 25.5 0V16ZM16 25.5C16 20.2533 20.2533 16 25.5 16V0C11.4167 0 0 11.4167 0 25.5H16ZM18.3368 31.7404C16.8762 30.0665 16 27.8955 16 25.5H0C0 31.9087 2.37456 37.7827 6.28074 42.2596L18.3368 31.7404ZM12.2958 45H12.3088V29H12.2958V45ZM18.1461 31.5402L18.015 31.4062L6.57665 42.5938L6.70775 42.7279L18.1461 31.5402ZM19.0291 32.4555C18.8099 32.2514 18.6004 32.0372 18.4012 31.8136L6.45259 42.4545C6.98348 43.0506 7.54194 43.6216 8.126 44.1654L19.0291 32.4555ZM31.2192 44.9062L19.2967 32.7166L7.85838 43.9043L19.7808 56.0938L31.2192 44.9062ZM31.617 32.7966L19.7789 44.9081L31.2211 56.0919L43.0591 43.9804L31.617 32.7966ZM32.6446 31.7617C32.4181 32.0198 32.1778 32.2657 31.9249 32.4981L42.7513 44.2789C43.4252 43.6596 44.0657 43.0044 44.6696 42.3163L32.6446 31.7617ZM32.9742 31.408L32.9361 31.447L44.3781 42.631L44.4162 42.592L32.9742 31.408ZM38.6912 45H38.6952V29H38.6912V45Z" fill="#364F85" fill-opacity="0.5" mask="url(#path-1-outside-1_74_824)"/>
</svg>
